<?xml version="1.0" encoding="utf-8"?>
<!-- Generator: Adobe Illustrator 24.0.3, SVG Export Plug-In . SVG Version: 6.00 Build 0)  -->
<svg version="1.1" id="Capa_1" xmlns="http://www.w3.org/2000/svg" xmlns:xlink="http://www.w3.org/1999/xlink" x="0px" y="0px"
	 viewBox="0 0 246 70" style="enable-background:new 0 0 246 70;" xml:space="preserve">
<style type="text/css">
	.st0{fill-rule:evenodd;clip-rule:evenodd;fill:#004A8B;}
	.st1{fill-rule:evenodd;clip-rule:evenodd;fill:#919294;}
</style>
<g>
	<path class="st0" d="M137.85,14.37c-0.81-1.35-2.65-1.76-3.97-1.94l-0.32-0.05c1.52,2.18,2.84,4.42,3.94,6.66
		c0.12-0.27,0.22-0.49,0.29-0.68C138.41,16.68,138.42,15.34,137.85,14.37L137.85,14.37z"/>
	<path class="st0" d="M121.77,31.98c0.73,1.88,1.49,2.85,2.4,3.03c1.14,0.23,2.65-0.71,4.88-3.05c0.45-0.47,0.95-1.04,1.46-1.69
		c-2.55,0.06-5.61,0.32-9.12,0.75C121.47,31.21,121.77,31.98,121.77,31.98L121.77,31.98z"/>
	<path class="st0" d="M116.68,21.57c1.34,2.07,2.58,4.41,3.77,7.16c0.33-0.04,0.66-0.1,1-0.15c3.37-0.51,7.1-0.73,10.8-0.62
		c2.05-2.92,3.83-6.06,4.76-7.9c-1.35-2.59-3.05-5.17-5.17-7.86c-3.15-0.28-6.7-0.23-10.28,0.15c-0.51,1.19-1.32,2.99-2.44,4.94
		C118.18,18.91,117.37,20.31,116.68,21.57L116.68,21.57z"/>
	<path class="st0" d="M138.09,6.55c-4.07-4.06-9.48-6.3-15.23-6.3c-4.82,0-9.37,1.55-13.17,4.49c-3.62,2.81-6.3,6.76-7.54,11.15
		c4.64-2.26,10.74-4.02,17.24-4.97c0.45-1.42,0.77-2.74,1.06-3.92c0.59-2.45,1.01-4.22,2.16-4.54c1.22-0.34,3.16,1,6.72,4.62
		c0,0,0,0,0.01,0l0,0l2.69,3.19c1.5,0.1,2.88,0.28,4.09,0.52l0.15,0.03c1.13,0.23,3.48,0.7,4.46,2.44c0.56,1,0.56,2.26,0.01,3.76
		c-0.62,1.72-1.27,3.27-1.99,4.76c0.61,1.51,1.13,3.02,1.52,4.5c0.01,0.07,0.04,0.19,0.05,0.31c0.05,0.36-0.23,0.71-0.24,0.73
		l-0.11,0.14l-0.06-0.17c-0.44-1.55-0.99-3.08-1.62-4.57c-0.96,1.9-2.02,3.67-3.23,5.38c3.13,0.24,5.87,0.7,7.94,1.35
		c0.93-2.45,1.41-5.03,1.41-7.67C144.39,16.02,142.15,10.62,138.09,6.55L138.09,6.55z"/>
	<path class="st0" d="M114.59,28.17c0.51,0.76,1.93,0.98,4.59,0.7c-0.92-2.35-1.91-4.44-3.01-6.38
		C114.74,25.19,113.93,27.19,114.59,28.17L114.59,28.17z"/>
	<path class="st0" d="M130.19,10.19c-2.57-3.03-4.04-4.21-5.07-4.05c-1.07,0.17-1.75,1.81-2.77,4.31l-0.04,0.09
		C125.1,10.23,127.75,10.12,130.19,10.19L130.19,10.19z"/>
	<path class="st0" d="M133.4,30.3c-1.25,1.56-2.69,3.17-4.54,5.07c-2.68,2.75-4.16,4-5.36,3.7c-0.83-0.21-1.44-1.18-1.99-3.15
		c-0.47-1.65-0.96-3.24-1.48-4.72l-1.96,0.28c-4.4,0.64-6.85,0.29-7.71-1.07c-1.24-1.94,1.06-5.74,4.2-10.5
		c-0.71-1.04-1.44-2.02-2.24-2.97c-0.08-0.09-0.15-0.17-0.2-0.24l-0.11-0.13l0.17-0.01c0.29-0.02,0.56,0.07,0.76,0.26
		c0.71,0.75,1.41,1.56,2.07,2.41l0.31-0.48l1.42-2.15c0.78-1.19,1.43-2.47,2-3.9c-8.02,1.21-13.8,3.7-16.24,6.86
		c-0.94,1.15-1.31,2.3-1.06,4.42c0.57,4.94,2.55,9.34,6.25,13.08c4.03,4.07,9.45,6.25,15.17,6.25c6.29,0,12.25-2.74,16.35-7.52
		c0.99-1.32,1.28-2.42,0.87-3.28C139.45,31.2,137.21,30.46,133.4,30.3L133.4,30.3z"/>
	<path class="st0" d="M68.22,55.97l3.37-8.64h1.8l3.38,8.64h-1.84l-0.9-2.31h-3.58l-0.9,2.31H68.22L68.22,55.97z M70.87,52.52h2.69
		l-1.35-3.45L70.87,52.52L70.87,52.52z"/>
	<polygon class="st0" points="78.27,55.97 78.27,47.33 80.07,47.33 80.07,54.74 83.96,54.74 83.96,55.97 78.27,55.97 	"/>
	<path class="st0" d="M85.52,55.97v-8.64h2.93c0.87,0,1.53,0.16,1.98,0.49c0.45,0.33,0.68,0.81,0.68,1.43
		c0,1.04-0.69,1.78-2.07,2.21c1.62,0.39,2.43,1.18,2.43,2.37c0,0.69-0.24,1.21-0.71,1.58c-0.47,0.37-1.15,0.55-2.03,0.55H85.52
		L85.52,55.97z M87.22,50.94h0.42c0.5,0,0.9-0.13,1.19-0.38c0.29-0.25,0.44-0.59,0.44-1.02c0-0.4-0.12-0.67-0.36-0.81
		c-0.24-0.14-0.68-0.21-1.34-0.21h-0.36V50.94L87.22,50.94z M87.22,54.74h0.38c0.75,0,1.27-0.08,1.55-0.24
		c0.28-0.16,0.43-0.45,0.43-0.88c0-0.44-0.19-0.8-0.57-1.09c-0.38-0.29-0.86-0.43-1.44-0.43h-0.35V54.74L87.22,54.74z"/>
	<polygon class="st0" points="93.35,55.97 93.35,47.33 98.76,47.33 98.76,48.51 95.15,48.51 95.15,50.94 98.12,50.94 98.12,52.1 
		95.15,52.1 95.15,54.74 99.03,54.74 99.03,55.97 93.35,55.97 	"/>
	<path class="st0" d="M100.83,55.97v-8.64h3.24c1.76,0,2.64,0.71,2.64,2.14c0,0.53-0.15,1.02-0.44,1.46
		c-0.3,0.44-0.7,0.77-1.22,1.01l2.81,4.03h-2.19l-2.14-3.54h-1v3.54H100.83L100.83,55.97z M102.53,51.26h0.42
		c1.31,0,1.96-0.53,1.96-1.59c0-0.77-0.58-1.16-1.75-1.16h-0.63V51.26L102.53,51.26z"/>
	<polygon class="st0" points="111.52,55.97 111.52,48.51 108.42,48.51 108.42,47.33 116.42,47.33 116.42,48.51 113.32,48.51 
		113.32,55.97 111.52,55.97 	"/>
	<polygon class="st0" points="122.17,55.97 122.17,47.33 127.58,47.33 127.58,48.51 123.97,48.51 123.97,50.94 126.94,50.94 
		126.94,52.1 123.97,52.1 123.97,54.74 127.85,54.74 127.85,55.97 122.17,55.97 	"/>
	<polygon class="st0" points="129.65,55.97 129.65,47.33 131.45,47.33 131.45,55.97 129.65,55.97 	"/>
	<polygon class="st0" points="133.92,55.97 133.92,47.33 135.5,47.33 139.51,53.23 139.51,47.33 140.96,47.33 140.96,55.97 
		139.35,55.97 135.36,50.07 135.36,55.97 133.92,55.97 	"/>
	<path class="st0" d="M142.92,55.89v-1.48c0.93,0.39,1.73,0.59,2.39,0.59c0.46,0,0.83-0.1,1.1-0.31c0.27-0.21,0.4-0.49,0.4-0.84
		c0-0.28-0.08-0.52-0.25-0.71c-0.17-0.19-0.48-0.42-0.95-0.68l-0.58-0.32c-0.78-0.43-1.33-0.85-1.65-1.25
		c-0.32-0.4-0.48-0.86-0.48-1.39c0-0.71,0.26-1.28,0.79-1.71c0.52-0.43,1.22-0.65,2.08-0.65c0.69,0,1.47,0.1,2.34,0.29v1.38
		c-0.88-0.33-1.58-0.49-2.09-0.49c-0.4,0-0.71,0.09-0.95,0.26c-0.24,0.18-0.36,0.41-0.36,0.7c0,0.24,0.08,0.45,0.24,0.62
		c0.16,0.18,0.48,0.4,0.94,0.66l0.62,0.34c0.84,0.47,1.41,0.9,1.73,1.29c0.32,0.39,0.47,0.87,0.47,1.43c0,0.8-0.3,1.43-0.9,1.88
		c-0.6,0.45-1.42,0.68-2.47,0.68C144.65,56.18,143.84,56.08,142.92,55.89L142.92,55.89z"/>
	<polygon class="st0" points="152.67,55.97 152.67,48.51 149.57,48.51 149.57,47.33 157.58,47.33 157.58,48.51 154.48,48.51 
		154.48,55.97 152.67,55.97 	"/>
	<polygon class="st0" points="159.08,55.97 159.08,47.33 164.49,47.33 164.49,48.51 160.89,48.51 160.89,50.94 163.85,50.94 
		163.85,52.1 160.89,52.1 160.89,54.74 164.76,54.74 164.76,55.97 159.08,55.97 	"/>
	<polygon class="st0" points="166.57,55.97 166.57,47.33 168.37,47.33 168.37,55.97 166.57,55.97 	"/>
	<polygon class="st0" points="170.83,55.97 170.83,47.33 172.42,47.33 176.42,53.23 176.42,47.33 177.87,47.33 177.87,55.97 
		176.26,55.97 172.28,50.07 172.28,55.97 170.83,55.97 	"/>
	<path class="st1" d="M3.27,69.65c-0.69,0-1.57-0.15-2.64-0.45v-1.44c1.16,0.54,2.11,0.81,2.85,0.81c0.57,0,1.04-0.15,1.38-0.45
		c0.35-0.3,0.52-0.7,0.52-1.19c0-0.4-0.11-0.74-0.34-1.03c-0.23-0.28-0.65-0.6-1.27-0.94l-0.71-0.41c-0.87-0.5-1.49-0.97-1.85-1.41
		c-0.36-0.44-0.54-0.96-0.54-1.54c0-0.79,0.29-1.44,0.86-1.95c0.57-0.51,1.3-0.77,2.19-0.77c0.79,0,1.63,0.13,2.51,0.4v1.33
		c-1.08-0.43-1.89-0.64-2.42-0.64c-0.5,0-0.92,0.13-1.25,0.4c-0.33,0.27-0.49,0.61-0.49,1.01c0,0.34,0.12,0.65,0.36,0.91
		c0.24,0.26,0.68,0.58,1.32,0.94l0.74,0.42c0.89,0.5,1.51,0.98,1.86,1.43c0.35,0.45,0.53,0.99,0.53,1.62c0,0.89-0.33,1.61-0.99,2.15
		C5.23,69.38,4.36,69.65,3.27,69.65L3.27,69.65z"/>
	<path class="st1" d="M11.87,69.56c-0.97,0-1.75-0.34-2.34-1.01c-0.59-0.67-0.89-1.56-0.89-2.66c0-1.11,0.3-2,0.89-2.66
		c0.59-0.67,1.39-1,2.38-1c0.99,0,1.78,0.33,2.37,0.99c0.59,0.66,0.89,1.55,0.89,2.65c0,1.13-0.3,2.02-0.89,2.69
		C13.7,69.23,12.89,69.56,11.87,69.56L11.87,69.56z M11.89,68.82c0.71,0,1.26-0.26,1.65-0.77c0.39-0.51,0.58-1.24,0.58-2.18
		c0-0.91-0.2-1.62-0.59-2.13c-0.39-0.51-0.93-0.77-1.62-0.77c-0.69,0-1.23,0.26-1.62,0.77c-0.39,0.51-0.58,1.23-0.58,2.14
		c0,0.91,0.19,1.63,0.58,2.15C10.67,68.56,11.21,68.82,11.89,68.82L11.89,68.82z"/>
	<path class="st1" d="M19.95,69.56c-1.09,0-1.92-0.32-2.52-0.95c-0.59-0.64-0.89-1.54-0.89-2.7c0-1.16,0.3-2.07,0.9-2.71
		c0.6-0.64,1.45-0.96,2.54-0.96c0.63,0,1.36,0.1,2.2,0.3v0.93c-0.95-0.33-1.69-0.49-2.21-0.49c-0.76,0-1.34,0.26-1.75,0.77
		c-0.41,0.51-0.62,1.23-0.62,2.17c0,0.89,0.22,1.59,0.66,2.1c0.44,0.51,1.05,0.77,1.81,0.77c0.66,0,1.37-0.2,2.12-0.61v0.84
		C21.52,69.38,20.76,69.56,19.95,69.56L19.95,69.56z"/>
	<polygon class="st1" points="24.03,69.39 24.03,62.4 25.02,62.4 25.02,69.39 24.03,69.39 	"/>
	<polygon class="st1" points="27.21,69.39 27.21,62.4 31.1,62.4 31.1,63.14 28.21,63.14 28.21,65.38 30.63,65.38 30.63,66.12 
		28.21,66.12 28.21,68.65 31.31,68.65 31.31,69.39 27.21,69.39 	"/>
	<path class="st1" d="M32.84,69.39V62.4h2.32c0.69,0,1.25,0.08,1.68,0.23c0.43,0.15,0.79,0.42,1.11,0.78
		c0.49,0.59,0.74,1.36,0.74,2.31c0,1.16-0.31,2.06-0.92,2.7c-0.61,0.64-1.48,0.96-2.59,0.96H32.84L32.84,69.39z M33.83,68.65h1.26
		c0.9,0,1.54-0.24,1.92-0.73c0.4-0.52,0.61-1.22,0.61-2.09c0-0.82-0.2-1.47-0.6-1.94c-0.24-0.29-0.53-0.48-0.87-0.59
		c-0.33-0.11-0.84-0.16-1.51-0.16h-0.81V68.65L33.83,68.65z"/>
	<path class="st1" d="M45.06,69.39l-0.76-1.94h-2.96l-0.77,1.94h-0.92l2.78-6.99h0.97l2.73,6.99H45.06L45.06,69.39z M44,66.71
		l-1.18-3.01l-1.19,3.01H44L44,66.71z"/>
	<path class="st1" d="M47.52,69.39V62.4h2.32c0.69,0,1.25,0.08,1.68,0.23c0.43,0.15,0.79,0.42,1.11,0.78
		c0.49,0.59,0.74,1.36,0.74,2.31c0,1.16-0.31,2.06-0.92,2.7c-0.61,0.64-1.48,0.96-2.59,0.96H47.52L47.52,69.39z M48.52,68.65h1.26
		c0.9,0,1.54-0.24,1.92-0.73c0.4-0.52,0.61-1.22,0.61-2.09c0-0.82-0.2-1.47-0.6-1.94c-0.24-0.29-0.53-0.48-0.87-0.59
		c-0.34-0.11-0.84-0.16-1.51-0.16h-0.81V68.65L48.52,68.65z"/>
	<polygon class="st1" points="55.15,69.39 55.15,62.4 59.04,62.4 59.04,63.14 56.15,63.14 56.15,65.38 58.57,65.38 58.57,66.12 
		56.15,66.12 56.15,68.65 59.24,68.65 59.24,69.39 55.15,69.39 	"/>
	<path class="st1" d="M64.22,69.39V62.4h1.8c0.69,0,1.23,0.13,1.6,0.4c0.37,0.26,0.56,0.64,0.56,1.14c0,0.85-0.47,1.45-1.42,1.81
		c1.14,0.35,1.71,0.98,1.71,1.9c0,0.57-0.19,1-0.56,1.3c-0.38,0.3-0.92,0.45-1.63,0.45H64.22L64.22,69.39z M65.22,65.47h0.31
		c0.52,0,0.93-0.11,1.21-0.34c0.29-0.23,0.43-0.55,0.43-0.96c0-0.69-0.52-1.03-1.57-1.03h-0.38V65.47L65.22,65.47z M65.22,68.65h0.2
		c0.71,0,1.18-0.05,1.39-0.14c0.4-0.17,0.6-0.5,0.6-0.97c0-0.42-0.18-0.76-0.55-1.04c-0.37-0.28-0.82-0.42-1.37-0.42h-0.27V68.65
		L65.22,68.65z"/>
	<polygon class="st1" points="70.17,69.39 70.17,62.4 74.06,62.4 74.06,63.14 71.16,63.14 71.16,65.38 73.59,65.38 73.59,66.12 
		71.16,66.12 71.16,68.65 74.26,68.65 74.26,69.39 70.17,69.39 	"/>
	<polygon class="st1" points="75.8,69.39 75.8,62.4 76.76,62.4 80.28,67.8 80.28,62.4 81.12,62.4 81.12,69.39 80.16,69.39 
		76.64,63.99 76.64,69.39 75.8,69.39 	"/>
	<polygon class="st1" points="83.32,69.39 83.32,62.4 87.22,62.4 87.22,63.14 84.32,63.14 84.32,65.38 86.74,65.38 86.74,66.12 
		84.32,66.12 84.32,68.65 87.42,68.65 87.42,69.39 83.32,69.39 	"/>
	<polygon class="st1" points="88.95,69.39 88.95,62.4 92.86,62.4 92.86,63.14 89.94,63.14 89.94,65.48 92.39,65.48 92.39,66.22 
		89.94,66.22 89.94,69.39 88.95,69.39 	"/>
	<polygon class="st1" points="94.5,69.39 94.5,62.4 95.5,62.4 95.5,69.39 94.5,69.39 	"/>
	<path class="st1" d="M100.67,69.56c-1.09,0-1.92-0.32-2.52-0.95c-0.59-0.64-0.89-1.54-0.89-2.7c0-1.16,0.3-2.07,0.9-2.71
		c0.6-0.64,1.45-0.96,2.54-0.96c0.63,0,1.36,0.1,2.2,0.3v0.93c-0.95-0.33-1.69-0.49-2.21-0.49c-0.76,0-1.34,0.26-1.75,0.77
		c-0.41,0.51-0.62,1.23-0.62,2.17c0,0.89,0.22,1.59,0.66,2.1c0.44,0.51,1.05,0.77,1.81,0.77c0.66,0,1.37-0.2,2.12-0.61v0.84
		C102.24,69.38,101.49,69.56,100.67,69.56L100.67,69.56z"/>
	<polygon class="st1" points="104.77,69.39 104.77,62.4 108.66,62.4 108.66,63.14 105.76,63.14 105.76,65.38 108.19,65.38 
		108.19,66.12 105.76,66.12 105.76,68.65 108.86,68.65 108.86,69.39 104.77,69.39 	"/>
	<polygon class="st1" points="110.39,69.39 110.39,62.4 111.36,62.4 114.87,67.8 114.87,62.4 115.72,62.4 115.72,69.39 
		114.76,69.39 111.24,63.99 111.24,69.39 110.39,69.39 	"/>
	<polygon class="st1" points="119.57,69.39 119.57,63.14 117.1,63.14 117.1,62.4 123.04,62.4 123.04,63.14 120.57,63.14 
		120.57,69.39 119.57,69.39 	"/>
	<polygon class="st1" points="124.42,69.39 124.42,62.4 128.31,62.4 128.31,63.14 125.42,63.14 125.42,65.38 127.84,65.38 
		127.84,66.12 125.42,66.12 125.42,68.65 128.51,68.65 128.51,69.39 124.42,69.39 	"/>
	<polygon class="st1" points="133.48,69.39 133.48,62.4 134.47,62.4 134.47,69.39 133.48,69.39 	"/>
	<path class="st1" d="M138.02,69.56c-0.47,0-1.07-0.11-1.79-0.32v-0.98c0.79,0.37,1.43,0.56,1.94,0.56c0.39,0,0.7-0.1,0.94-0.31
		c0.24-0.2,0.36-0.47,0.36-0.81c0-0.27-0.08-0.51-0.23-0.7c-0.16-0.19-0.44-0.41-0.86-0.64l-0.48-0.28
		c-0.59-0.34-1.01-0.66-1.26-0.96c-0.24-0.3-0.37-0.65-0.37-1.05c0-0.54,0.19-0.98,0.58-1.33c0.39-0.35,0.89-0.52,1.49-0.52
		c0.54,0,1.1,0.09,1.7,0.27v0.91c-0.74-0.29-1.28-0.44-1.65-0.44c-0.34,0-0.63,0.09-0.85,0.27c-0.22,0.18-0.33,0.41-0.33,0.69
		c0,0.23,0.08,0.44,0.25,0.62c0.16,0.18,0.46,0.39,0.9,0.64l0.5,0.28c0.6,0.34,1.03,0.67,1.27,0.97c0.24,0.3,0.36,0.67,0.36,1.1
		c0,0.61-0.22,1.09-0.67,1.46C139.35,69.37,138.76,69.56,138.02,69.56L138.02,69.56z"/>
	<path class="st1" d="M142.26,69.39V62.4h2.12c0.67,0,1.18,0.15,1.54,0.44c0.36,0.3,0.54,0.72,0.54,1.29c0,0.93-0.47,1.59-1.41,1.98
		l2.32,3.28h-1.21l-1.98-2.96h-0.91v2.96H142.26L142.26,69.39z M143.25,65.68h0.32c1.24,0,1.85-0.49,1.85-1.46
		c0-0.72-0.52-1.08-1.55-1.08h-0.62V65.68L143.25,65.68z"/>
	<path class="st1" d="M153.35,69.39l-0.76-1.94h-2.96l-0.77,1.94h-0.92l2.78-6.99h0.97l2.73,6.99H153.35L153.35,69.39z
		 M152.29,66.71l-1.18-3.01l-1.19,3.01H152.29L152.29,66.71z"/>
	<polygon class="st1" points="155.81,69.39 155.81,62.4 159.7,62.4 159.7,63.14 156.81,63.14 156.81,65.38 159.23,65.38 
		159.23,66.12 156.81,66.12 156.81,68.65 159.91,68.65 159.91,69.39 155.81,69.39 	"/>
	<polygon class="st1" points="161.44,69.39 161.44,62.4 162.43,62.4 162.43,68.65 165.57,68.65 165.57,69.39 161.44,69.39 	"/>
	<polygon class="st1" points="166.96,69.39 166.96,62.4 167.96,62.4 167.96,69.39 166.96,69.39 	"/>
	<polygon class="st1" points="171.8,69.39 171.8,63.14 169.33,63.14 169.33,62.4 175.27,62.4 175.27,63.14 172.8,63.14 172.8,69.39 
		171.8,69.39 	"/>
	<path class="st1" d="M181.24,69.39l-0.76-1.94h-2.96l-0.77,1.94h-0.92l2.78-6.99h0.97l2.73,6.99H181.24L181.24,69.39z
		 M180.19,66.71L179,63.7l-1.19,3.01H180.19L180.19,66.71z"/>
	<path class="st1" d="M187.16,69.39V62.4h1.8c0.69,0,1.23,0.13,1.6,0.4c0.37,0.26,0.56,0.64,0.56,1.14c0,0.85-0.47,1.45-1.42,1.81
		c1.14,0.35,1.71,0.98,1.71,1.9c0,0.57-0.19,1-0.56,1.3c-0.38,0.3-0.92,0.45-1.63,0.45H187.16L187.16,69.39z M188.15,65.47h0.31
		c0.52,0,0.93-0.11,1.21-0.34c0.29-0.23,0.43-0.55,0.43-0.96c0-0.69-0.52-1.03-1.57-1.03h-0.38V65.47L188.15,65.47z M188.15,68.65
		h0.2c0.71,0,1.18-0.05,1.39-0.14c0.4-0.17,0.6-0.5,0.6-0.97c0-0.42-0.18-0.76-0.55-1.04c-0.37-0.28-0.82-0.42-1.37-0.42h-0.27
		V68.65L188.15,68.65z"/>
	<path class="st1" d="M193.1,69.39V62.4h2.12c0.67,0,1.18,0.15,1.54,0.44c0.36,0.3,0.54,0.72,0.54,1.29c0,0.93-0.47,1.59-1.41,1.98
		l2.32,3.28h-1.21l-1.98-2.96h-0.91v2.96H193.1L193.1,69.39z M194.1,65.68h0.32c1.24,0,1.85-0.49,1.85-1.46
		c0-0.72-0.52-1.08-1.55-1.08h-0.62V65.68L194.1,65.68z"/>
	<path class="st1" d="M204.19,69.39l-0.76-1.94h-2.96l-0.77,1.94h-0.92l2.78-6.99h0.97l2.73,6.99H204.19L204.19,69.39z
		 M203.14,66.71l-1.19-3.01l-1.19,3.01H203.14L203.14,66.71z"/>
	<path class="st1" d="M208.02,69.56c-0.47,0-1.07-0.11-1.79-0.32v-0.98c0.79,0.37,1.43,0.56,1.94,0.56c0.39,0,0.7-0.1,0.94-0.31
		c0.24-0.2,0.36-0.47,0.36-0.81c0-0.27-0.08-0.51-0.23-0.7s-0.44-0.41-0.86-0.64l-0.48-0.28c-0.59-0.34-1.01-0.66-1.26-0.96
		c-0.24-0.3-0.37-0.65-0.37-1.05c0-0.54,0.19-0.98,0.58-1.33s0.89-0.52,1.49-0.52c0.54,0,1.1,0.09,1.7,0.27v0.91
		c-0.74-0.29-1.28-0.44-1.65-0.44c-0.34,0-0.63,0.09-0.85,0.27c-0.22,0.18-0.33,0.41-0.33,0.69c0,0.23,0.08,0.44,0.25,0.62
		c0.16,0.18,0.46,0.39,0.9,0.64l0.5,0.28c0.6,0.34,1.03,0.67,1.27,0.97c0.24,0.3,0.36,0.67,0.36,1.1c0,0.61-0.22,1.09-0.67,1.46
		C209.35,69.37,208.75,69.56,208.02,69.56L208.02,69.56z"/>
	<polygon class="st1" points="212.23,69.39 212.23,62.4 213.23,62.4 213.23,69.39 212.23,69.39 	"/>
	<polygon class="st1" points="215.42,69.39 215.42,62.4 216.42,62.4 216.42,68.65 219.55,68.65 219.55,69.39 215.42,69.39 	"/>
	<polygon class="st1" points="220.96,69.39 220.96,62.4 224.86,62.4 224.86,63.14 221.96,63.14 221.96,65.38 224.38,65.38 
		224.38,66.12 221.96,66.12 221.96,68.65 225.06,68.65 225.06,69.39 220.96,69.39 	"/>
	<polygon class="st1" points="226.57,69.39 226.57,62.4 227.57,62.4 227.57,69.39 226.57,69.39 	"/>
	<path class="st1" d="M229.76,69.39V62.4h2.12c0.67,0,1.18,0.15,1.54,0.44c0.36,0.3,0.54,0.72,0.54,1.29c0,0.93-0.47,1.59-1.41,1.98
		l2.32,3.28h-1.21l-1.98-2.96h-0.91v2.96H229.76L229.76,69.39z M230.76,65.68h0.32c1.24,0,1.85-0.49,1.85-1.46
		c0-0.72-0.52-1.08-1.55-1.08h-0.62V65.68L230.76,65.68z"/>
	<path class="st1" d="M243.43,69.39l-1.12-2.85h-4.35l-1.13,2.85h-1.35l4.07-10.27h1.44L245,69.39H243.43L243.43,69.39z
		 M241.88,65.46l-1.75-4.43l-1.76,4.43H241.88L241.88,65.46z"/>
</g>
</svg>
