<?xml version="1.0" encoding="utf-8"?>
<!-- Generator: Adobe Illustrator 24.0.3, SVG Export Plug-In . SVG Version: 6.00 Build 0)  -->
<svg version="1.1" id="Capa_1" xmlns="http://www.w3.org/2000/svg" xmlns:xlink="http://www.w3.org/1999/xlink" x="0px" y="0px"
	 viewBox="0 0 208.8 70" style="enable-background:new 0 0 208.8 70;" xml:space="preserve">
<style type="text/css">
	.st0{fill:#1A171B;}
	.st1{fill:#003057;}
	.st2{fill:#007298;}
	.st3{fill:#0071B9;stroke:#1A171B;stroke-width:8.621137e-02;stroke-miterlimit:10;}
	.st4{fill:#D9003C;}
	.st5{fill:#9B9C9E;}
	.st6{fill:#004D92;}
	.st7{fill-rule:evenodd;clip-rule:evenodd;fill:#00A2BA;}
	.st8{fill:#0092BC;}
	.st9{fill:#4B575E;}
	.st10{fill:#FFFFFF;}
	.st11{fill:#A27D43;}
	.st12{fill:#003362;}
	.st13{fill:#47535A;}
</style>
<g>
	<g>
		<path class="st8" d="M41.8,0.6c0.6,1.2,0.9,2.6,0.9,4.1c0,5.3-4.4,9.7-9.7,9.7c-5.3,0-9.7-4.4-9.7-9.7c0-1.4,0.3-2.8,0.9-4.1H0V64
			h24.6V33.7h-5.9v-4.5h22.6V64h22.9V0.6H41.8z"/>
	</g>
	<path class="st9" d="M82.2,2.8v1.6h-0.5c-1.1,0-1.1,0.3-1.1,1.3V16c0,0.9,0,1.2,1.1,1.2h0.5v1.6h-6v-1.6h0.5c1.1,0,1.1-0.2,1.1-1.2
		V5.5c0-0.8,0-1.1-1.1-1.1h-0.5V2.8H82.2z"/>
	<path class="st9" d="M87.6,7.6c0.1,0.5,0.2,1.1,0.2,1.6h0c0.3-0.5,1.2-1.9,3.4-1.9c0.8,0,2.6,0.2,3.4,2.1c0.3,0.7,0.3,2,0.3,2.3
		v4.5c0,1.1,0,1.1,1.3,1.1v1.5h-5.4v-1.5h0.4c0.9,0,0.9-0.2,0.9-1.4v-3.9c0-1.1,0-2.7-1.9-2.7c-2.5,0-2.5,2.7-2.5,3.5v3.2
		c0,1.1,0,1.2,0.9,1.2h0.5v1.5h-5.4v-1.5h0.4c1,0,1-0.2,1-1.2v-5.2c0-1.3,0-1.5-0.8-1.5c-0.3,0-0.6,0-0.7,0V8L87.6,7.6z"/>
	<path class="st9" d="M105.3,10.9h-2v-0.6c0-0.5,0-1.6-1.7-1.6c-0.7,0-1.8,0.3-1.8,1.3c0,0.8,0.7,1.2,1.4,1.5l1.4,0.6
		c1.8,0.7,3.4,1.6,3.4,3.7c0,1.3-0.7,2.3-1.7,2.9c-0.5,0.3-1.2,0.6-2.9,0.6c-2,0-3.1-0.4-4-0.8v-3.2h2.1v0.6c0,0.5,0,1.8,1.8,1.8
		c0.6,0,2-0.2,2-1.5c0-0.9-0.5-1.2-2.4-2c-1.9-0.9-3.5-1.6-3.5-3.6c0-1.5,1.1-3.2,4.3-3.2c1.9,0,3.2,0.6,3.7,0.7V10.9z"/>
	<path class="st9" d="M110.7,4.3v3.3h2.8v1.9h-2.8v5.7c0,0.6,0,1.8,1.1,1.8c0.6,0,0.9-0.2,1.8-0.6v1.9c-0.9,0.5-1.9,0.8-2.9,0.8
		c-2.8,0-2.8-2.2-2.8-3.2V9.5h-1.4V8c2.2-0.7,2.4-2.8,2.5-3.7H110.7z"/>
	<path class="st9" d="M119.1,7.4v8.7c0,1.1,0,1.2,0.9,1.2h0.4v1.5H115v-1.5h0.6c0.7,0,0.9-0.1,0.9-1v-5.6c0-1.2,0-1.5-0.9-1.5h-0.7
		V7.8L119.1,7.4z M119.2,3.9c0,0.9-0.7,1.5-1.7,1.5c-1,0-1.7-0.6-1.7-1.5c0-0.9,0.7-1.5,1.7-1.5C118.5,2.4,119.2,3,119.2,3.9z"/>
	<path class="st9" d="M132.7,7.4v7c0,1,0,2.5,1.8,2.5c2.1,0,2.5-1.9,2.5-3.3v-3.5c0-0.8,0-1.1-0.6-1.1c-0.1,0-0.4,0-1,0V7.7l4.2-0.3
		V16c0,0.9,0,1,0.8,1c0.2,0,0.4,0,0.7,0v1.5l-3.9,0.4c-0.2-0.9-0.2-1.3-0.2-1.7h0c-0.3,0.7-1.2,1.9-3.5,1.9c-3.5,0-3.5-3-3.5-4.1
		v-4.4c0-0.7,0-1.2-0.6-1.2c-0.2,0-0.6,0-0.9,0V7.7L132.7,7.4z"/>
	<path class="st9" d="M145.3,4.3v3.3h2.8v1.9h-2.8v5.7c0,0.6,0,1.8,1.1,1.8c0.6,0,0.9-0.2,1.8-0.6v1.9c-0.9,0.5-1.9,0.8-2.9,0.8
		c-2.8,0-2.8-2.2-2.8-3.2V9.5h-1.4V8c2.2-0.7,2.4-2.8,2.5-3.7H145.3z"/>
	<path class="st9" d="M151.8,13.5c0,2.3,1.4,3.6,3.2,3.6c1.7,0,2.9-0.8,3.7-1.4c0.1,0,0.2-0.1,0.2-0.2v2.2c-0.6,0.4-2.1,1.5-4.6,1.5
		c-4.1,0-5.3-3.3-5.3-5.8c0-3.2,1.8-6.2,5.4-6.2c0.9,0,3,0.2,4.2,2.4c0.7,1.3,0.6,3,0.6,3.8H151.8z M156.4,11.6
		c0-0.7-0.1-2.7-2.1-2.7c-1.5,0-2.2,1.1-2.5,2.7H156.4z"/>
	<path class="st9" d="M166,7.9h1.9c0.7-3.3,2.2-5.7,5.2-5.7c1.4,0,2.4,0.4,2.8,0.6l-0.6,2.3h-1.4c0-0.2,0-0.4,0-0.6
		c0-0.7-0.6-0.8-0.9-0.8c-1.6,0-2.1,2.2-2.5,4.2h2.4l-0.5,1.8h-2.3l-2,9.2c-0.5,2.6-1.8,6.3-5.3,6.3c-0.9,0-1.6-0.3-2-0.4l0.3-2.3
		h1.4c0,0.5-0.1,1.1,0.6,1.1c0.7,0,1.1-0.7,1.3-1c0.4-0.7,0.7-1.7,1.1-3.9l1.9-8.9h-2L166,7.9z"/>
	<path class="st9" d="M177.8,7.7c3.2,0,4.5,2.2,4.5,4.1c0,1.5-0.9,7.4-6.2,7.4c-4.3,0-4.5-3.8-4.5-4.5
		C171.6,12.3,173.1,7.7,177.8,7.7z M176.2,17.5c2.7,0,3.5-4.3,3.5-5.8c0-1.6-1-2.3-2-2.3c-2.4,0-3.5,3.5-3.5,5.6
		C174.2,16.3,174.9,17.5,176.2,17.5z"/>
	<path class="st9" d="M187.8,8l-0.7,2.6l0,0c1.1-1.4,2.3-2.8,3.9-2.8c0.6,0,0.8,0.1,1.1,0.3l-0.8,2.8h-1.5c0-0.2,0-0.6-0.4-0.6
		c-0.6,0-1.1,0.6-1.2,0.7c-1.2,1.4-1.6,2.6-2.2,4.4l-0.9,3.4h-2.3l2-8c0.1-0.4,0.1-0.5,0.1-0.7c0-0.3-0.1-0.4-0.4-0.4
		c-0.2,0-0.4,0-1,0.1l0.4-1.4L187.8,8z"/>
	<path class="st9" d="M82.1,25.7v1.6h-0.5c-1.1,0-1.1,0.4-1.1,1.1v3.8h7v-3.8c0-0.7,0-1.1-1.1-1.1h-0.5v-1.6h6v1.6h-0.5
		c-1,0-1.1,0.2-1.1,1.1v10.7c0,0.8,0,1.1,1.1,1.1h0.5v1.6h-6v-1.6h0.5c1.1,0,1.1-0.3,1.1-1.1v-4.8h-7v4.6c0,1,0,1.3,1.1,1.3h0.5v1.6
		h-6v-1.6h0.6c1,0,1-0.3,1-1.1V28.4c0-0.8,0-1.1-1.1-1.1h-0.5v-1.6H82.1z"/>
	<path class="st9" d="M95.2,36.5c0,2.3,1.4,3.6,3.2,3.6c1.7,0,2.9-0.8,3.7-1.4c0.1,0,0.2-0.1,0.2-0.2v2.2c-0.6,0.4-2.1,1.5-4.6,1.5
		c-4.1,0-5.3-3.3-5.3-5.8c0-3.2,1.8-6.2,5.4-6.2c0.9,0,3,0.2,4.2,2.4c0.7,1.3,0.6,3,0.6,3.8H95.2z M99.9,34.6c0-0.7-0.1-2.7-2.1-2.7
		c-1.5,0-2.2,1.1-2.5,2.7H99.9z"/>
	<path class="st9" d="M104.5,31.5c2-1.3,4-1.3,4.3-1.3c1.3,0,2.7,0.3,3.5,1.3c0.4,0.5,0.7,1.1,0.7,2.8v4.4c0,0.8,0.1,1.4,0.7,1.4
		c0.3,0,0.6-0.2,0.9-0.3v1.6c-1,0.5-1.6,0.7-2.3,0.7c-0.7,0-1.7-0.2-1.8-1.5c-0.4,0.4-1.3,1.5-3.4,1.5c-2.9,0-3.6-1.8-3.6-3.2
		c0-2.7,2.1-3.5,5.4-4.3l1.5-0.4c0-1-0.1-2.4-2-2.4s-1.9,1.3-1.9,1.8v0.5h-2V31.5z M110.5,36c-2.9,0.8-4.3,1.2-4.3,2.7
		c0,0.7,0.5,1.6,1.8,1.6c0.6,0,1.3-0.2,1.8-0.7c0.7-0.6,0.7-1.7,0.7-2.3V36z"/>
	<path class="st9" d="M115.3,25.1l4.2-0.4v14.4c0,1.3,0,1.3,1.3,1.3v1.5h-5.3v-1.5h0.4c1,0,1-0.2,1-1.3V28c0-1,0-1.5-0.8-1.5
		c-0.2,0-0.5,0.2-0.7,0.2V25.1z"/>
	<path class="st9" d="M125.6,27.3v3.3h2.8v1.9h-2.8v5.7c0,0.6,0,1.8,1.1,1.8c0.6,0,0.9-0.2,1.8-0.6v1.9c-0.9,0.5-1.9,0.8-2.9,0.8
		c-2.8,0-2.8-2.2-2.8-3.2v-6.5h-1.4V31c2.2-0.7,2.4-2.8,2.5-3.7H125.6z"/>
	<path class="st9" d="M133.5,24.7v7.3h0c0.2-0.4,1.1-1.8,3.3-1.8c3.7,0,3.7,3,3.7,4.4v4.4c0,1.1,0,1.1,1.3,1.1v1.5h-5.4v-1.5h0.4
		c0.9,0,0.9-0.1,0.9-1.4v-3.9c0-1,0-2.7-1.8-2.7c-2.5,0-2.5,2.7-2.5,3.4v3.3c0,1.1,0,1.2,0.9,1.2h0.4v1.5h-5.4v-1.5h0.4
		c1,0,1-0.2,1-1.2V28.4c0-1.1,0-1.7-1-1.7h-0.6v-1.4L133.5,24.7z"/>
	<path class="st9" d="M151.8,34.8h-2.2v-1c0-0.6,0-1.8-1.7-1.8c-2.3,0-2.9,2.5-2.9,3.9c0,2.5,1.1,4.1,3.2,4.1c1.7,0,3.1-1,3.6-1.4
		v2.2c-1.3,0.9-2.6,1.4-4.2,1.4c-4.4,0-5.3-3.8-5.3-5.7c0-4.7,3.1-6.3,5.7-6.3c0.2,0,2.1,0,3.7,1V34.8z"/>
	<path class="st9" d="M153.8,31.5c2-1.3,4-1.3,4.3-1.3c1.3,0,2.7,0.3,3.5,1.3c0.4,0.5,0.7,1.1,0.7,2.8v4.4c0,0.8,0.1,1.4,0.7,1.4
		c0.3,0,0.6-0.2,0.9-0.3v1.6c-1,0.5-1.6,0.7-2.3,0.7c-0.7,0-1.7-0.2-1.8-1.5c-0.4,0.4-1.3,1.5-3.4,1.5c-2.9,0-3.6-1.8-3.6-3.2
		c0-2.7,2.1-3.5,5.4-4.3l1.5-0.4c0-1-0.1-2.4-2-2.4s-1.9,1.3-1.9,1.8v0.5h-2V31.5z M159.7,36c-2.9,0.8-4.3,1.2-4.3,2.7
		c0,0.7,0.5,1.6,1.8,1.6c0.6,0,1.3-0.2,1.8-0.7c0.7-0.6,0.7-1.7,0.7-2.3V36z"/>
	<path class="st9" d="M168.4,30.6c0.1,0.6,0.2,1.1,0.2,2h0c0.3-0.5,1.2-2.1,3.1-2.1c0.7,0,1.1,0.2,1.4,0.3v3h-1.8
		c0-0.5,0-1.1-0.6-1.1c-0.5,0-2.1,0.8-2.1,4.3v2.5c0,0.6,0.1,0.8,0.9,0.8h0.6v1.5h-5.4v-1.5h0.4c0.8,0,1-0.2,1-1v-6c0-1-0.3-1-1.5-1
		v-1.5L168.4,30.6z"/>
	<path class="st9" d="M176.3,36.5c0,2.3,1.4,3.6,3.2,3.6c1.7,0,2.9-0.8,3.7-1.4c0.1,0,0.2-0.1,0.2-0.2v2.2c-0.6,0.4-2.1,1.5-4.6,1.5
		c-4.1,0-5.3-3.3-5.3-5.8c0-3.2,1.8-6.2,5.4-6.2c0.9,0,3,0.2,4.2,2.4c0.7,1.3,0.6,3,0.6,3.8H176.3z M181,34.6c0-0.7-0.1-2.7-2.1-2.7
		c-1.5,0-2.2,1.1-2.5,2.7H181z"/>
	<path class="st9" d="M82.2,47.8v1.6h-0.5c-1.1,0-1.1,0.3-1.1,1.3V61c0,0.9,0,1.2,1.1,1.2h0.5v1.6h-6v-1.6h0.5
		c1.1,0,1.1-0.2,1.1-1.2V50.5c0-0.8,0-1.1-1.1-1.1h-0.5v-1.6H82.2z"/>
	<path class="st9" d="M87.4,52.6c0.1,0.4,0.2,0.7,0.2,1.6h0c0.3-0.5,1.3-1.8,3.4-1.8c2.4,0,3.1,1.5,3.3,2.1c0.8-1.4,2.1-2.1,3.7-2.1
		c1.1,0,2.5,0.5,3.1,1.6c0.3,0.5,0.5,1.1,0.5,2.6v4.9c0,0.9,0.1,1,1,1h0.3v1.5h-5.4v-1.5H98c0.7,0,0.8-0.1,0.8-1V57
		c0-1,0-2.6-1.8-2.6c-2.5,0-2.5,2.8-2.5,3.3v3.7c0,0.8,0.1,0.9,0.9,0.9h0.5v1.5h-5.3v-1.5h0.4c0.9,0,1-0.2,1-1.1V57
		c0-1.3-0.3-2.6-1.8-2.6c-2.5,0-2.5,2.8-2.5,3.4v3.5c0,0.8,0,1.1,0.8,1.1H89v1.5h-5.4v-1.5H84c0.9,0,0.9-0.3,0.9-1.1v-5.9
		c0-0.7-0.1-1-0.7-1h-0.8v-1.4L87.4,52.6z"/>
	<path class="st9" d="M106.7,52.6c0.2,0.6,0.2,0.9,0.2,1.6h0c0.4-0.7,1.2-2,3.4-2c3.1,0,4.6,2.7,4.6,5.7c0,3.3-1.6,6.3-5,6.3
		c-1.7,0-2.5-0.8-3-1.3v3.9c0,1,0,1.1,1,1.1h0.5v1.5h-5.5v-1.5h0.3c1,0,1-0.2,1-1.2V55.8c0-1.4,0-1.5-0.7-1.5c-0.1,0-0.7,0-0.8,0
		v-1.4L106.7,52.6z M106.7,58.4c0,2.6,1.2,3.8,2.7,3.8c2.6,0,2.6-3.4,2.6-3.9c0-2.4-0.9-3.9-2.6-3.9
		C107.6,54.4,106.7,56.4,106.7,58.4z"/>
	<path class="st9" d="M119.1,52.6c0.1,0.6,0.2,1.1,0.2,2h0c0.3-0.5,1.2-2.1,3.1-2.1c0.7,0,1.1,0.2,1.4,0.3v3H122
		c0-0.5,0-1.1-0.6-1.1c-0.5,0-2.1,0.8-2.1,4.3v2.5c0,0.6,0.1,0.8,0.9,0.8h0.6v1.5h-5.4v-1.5h0.3c0.8,0,1-0.2,1-1v-6
		c0-1.1-0.3-1.1-1.5-1v-1.5L119.1,52.6z"/>
	<path class="st9" d="M124,58.4c0-2.8,1.4-6.2,5.6-6.2c3.6,0,5.6,2.2,5.6,5.7c0,2.9-1.4,6.2-5.8,6.2C125.6,64.2,124,61.6,124,58.4z
		 M126.7,58.3c0,1.2,0.4,4.1,2.9,4.1c2.8,0,2.8-3.6,2.8-4.3c0-0.6,0-4-2.8-4C127.4,54.1,126.7,56.5,126.7,58.3z"/>
	<path class="st9" d="M134.8,52.6h5.6v1.5c-0.7,0-1.1,0-1.1,0.4c0,0.2,0.1,0.5,0.2,0.7l2.1,5.4l2-5.2c0.1-0.2,0.2-0.6,0.2-0.8
		c0-0.4-0.4-0.4-1.1-0.5v-1.5h4.7v1.5c-0.8,0-0.9,0-1.5,1.4l-3.6,8.6h-2.1l-3.7-8.7c-0.5-1.1-0.7-1.3-1.7-1.3V52.6z"/>
	<path class="st9" d="M149.8,58.5c0,2.3,1.4,3.6,3.2,3.6c1.7,0,2.9-0.8,3.7-1.4c0.1,0,0.2-0.1,0.2-0.2v2.2c-0.6,0.4-2.1,1.5-4.6,1.5
		c-4.1,0-5.3-3.3-5.3-5.8c0-3.2,1.8-6.2,5.4-6.2c0.9,0,3,0.2,4.2,2.4c0.7,1.3,0.6,3,0.6,3.8H149.8z M154.5,56.6
		c0-0.7-0.1-2.7-2.1-2.7c-1.5,0-2.2,1.1-2.4,2.7H154.5z"/>
	<path class="st9" d="M161.8,52.6c0.1,0.4,0.2,0.7,0.2,1.6h0c0.4-0.5,1.3-1.8,3.4-1.8c2.4,0,3.1,1.5,3.3,2.1
		c0.8-1.4,2.1-2.1,3.7-2.1c1.1,0,2.5,0.5,3.1,1.6c0.3,0.5,0.5,1.1,0.5,2.6v4.9c0,0.9,0.1,1,1,1h0.3v1.5h-5.4v-1.5h0.6
		c0.7,0,0.8-0.1,0.8-1V57c0-1,0-2.6-1.8-2.6c-2.5,0-2.5,2.8-2.5,3.3v3.7c0,0.8,0.1,0.9,0.9,0.9h0.5v1.5h-5.3v-1.5h0.4
		c0.9,0,1-0.2,1-1.1V57c0-1.3-0.3-2.6-1.8-2.6c-2.5,0-2.5,2.8-2.5,3.4v3.5c0,0.8,0,1.1,0.8,1.1h0.6v1.5H158v-1.5h0.4
		c0.9,0,0.9-0.3,0.9-1.1v-5.9c0-0.7-0.1-1-0.7-1h-0.8v-1.4L161.8,52.6z"/>
	<path class="st9" d="M180,58.5c0,2.3,1.4,3.6,3.2,3.6c1.7,0,2.9-0.8,3.7-1.4c0.1,0,0.2-0.1,0.2-0.2v2.2c-0.6,0.4-2.1,1.5-4.6,1.5
		c-4.1,0-5.3-3.3-5.3-5.8c0-3.2,1.8-6.2,5.4-6.2c0.9,0,3,0.2,4.2,2.4c0.7,1.3,0.6,3,0.6,3.8H180z M184.7,56.6c0-0.7-0.1-2.7-2.1-2.7
		c-1.5,0-2.2,1.1-2.5,2.7H184.7z"/>
	<path class="st9" d="M192,52.6c0.1,0.5,0.2,1.1,0.2,1.6h0c0.3-0.5,1.2-1.9,3.4-1.9c0.8,0,2.6,0.2,3.4,2.1c0.3,0.7,0.3,2,0.3,2.3
		v4.5c0,1.1,0,1.1,1.3,1.1v1.5h-5.4v-1.5h0.4c0.9,0,0.9-0.2,0.9-1.4v-3.9c0-1.1,0-2.7-1.9-2.7c-2.5,0-2.5,2.7-2.5,3.5v3.2
		c0,1.1,0,1.2,0.9,1.2h0.5v1.5h-5.4v-1.5h0.4c1,0,1-0.2,1-1.2v-5.2c0-1.3,0-1.5-0.8-1.5c-0.3,0-0.6,0-0.7,0V53L192,52.6z"/>
	<path class="st9" d="M204.9,49.3v3.3h2.8v1.9h-2.8v5.7c0,0.6,0,1.8,1.1,1.8c0.6,0,0.9-0.2,1.8-0.6v1.9c-0.9,0.5-1.9,0.8-2.9,0.8
		c-2.8,0-2.8-2.2-2.8-3.2v-6.5h-1.4V53c2.2-0.7,2.4-2.8,2.5-3.7H204.9z"/>
	<path class="st9" d="M124.9,4.3v3.3h4.8v1.9h-4.8v5.7c0,0.6,0,1.8,1.1,1.8c0.6,0,0.9-0.2,1.8-0.6v1.9c-0.9,0.5-1.9,0.8-2.9,0.8
		c-2.8,0-2.8-2.2-2.8-3.2V9.5h-1.4V8c2.2-0.7,2.4-2.8,2.5-3.7H124.9z"/>
	<g>
		<path class="st10" d="M33,14.4c5.3,0,9.7-4.4,9.7-9.7c0-1.4-0.3-2.8-0.9-4.1H24.2c-0.6,1.2-0.9,2.6-0.9,4.1
			C23.3,10,27.7,14.4,33,14.4z"/>
		<polygon class="st10" points="18.7,29.2 18.7,33.7 24.7,33.7 24.7,64 41.3,64 41.3,29.2 		"/>
	</g>
</g>
</svg>
