<?xml version="1.0" encoding="utf-8"?>
<!-- Generator: Adobe Illustrator 24.0.3, SVG Export Plug-In . SVG Version: 6.00 Build 0)  -->
<svg version="1.1" id="Capa_1" xmlns="http://www.w3.org/2000/svg" xmlns:xlink="http://www.w3.org/1999/xlink" x="0px" y="0px"
	 viewBox="0 0 184.8 70" style="enable-background:new 0 0 184.8 70;" xml:space="preserve">
<style type="text/css">
	.st0{fill:#A27D43;}
	.st1{fill:#003362;}
	.st2{fill:#47535A;}
</style>
<g>
	<g>
		<path class="st0" d="M93,2.7c0-0.1,0-0.2,0-0.4c0-1.2-0.7-2.1-1.5-2.1c-0.8,0-1.6,0.9-1.6,2.1c0,0.1,0,0.2,0,0.4
			c-1-0.4-3.1-1-3.7,1.1c0,0,2.7,0.7,3.7,4.6h1h1.2h1c0.9-3.9,3.7-4.6,3.7-4.6C96.1,1.8,94,2.3,93,2.7z"/>
		<path class="st0" d="M90,43.2c0,0.1,0,0.2,0,0.4c0,1.2,0.7,2.1,1.6,2.1c0.8,0,1.5-0.9,1.5-2.1c0-0.1,0-0.2,0-0.4
			c1,0.4,3.1,1,3.7-1.1c0,0-2.7-0.7-3.7-4.6h-0.9h-1.2H90c-1,3.9-3.7,4.6-3.7,4.6C86.9,44.2,89,43.6,90,43.2z"/>
		<path class="st0" d="M111.7,24.6c0.1,0,0.2,0,0.3,0c1.2,0,2.1-0.7,2.1-1.6s-0.9-1.6-2.1-1.6c-0.1,0-0.2,0-0.3,0
			c0.4-1,1-3.1-1.1-3.7c0,0-0.7,2.7-4.6,3.7v1v1.2v1c3.9,0.9,4.6,3.7,4.6,3.7C112.7,27.6,112.1,25.5,111.7,24.6z"/>
		<path class="st0" d="M71.4,24.5c-0.1,0-0.2,0-0.3,0c-1.2,0-2.1-0.7-2.1-1.6c0-0.8,0.9-1.6,2.1-1.6c0.1,0,0.2,0,0.3,0
			c-0.4-1-1-3.1,1.1-3.7c0,0,0.7,2.7,4.6,3.7v0.9v1.2v0.9c-3.9,0.9-4.6,3.7-4.6,3.7C70.4,27.6,71,25.5,71.4,24.5z"/>
		<path class="st1" d="M82.4,5.8c-0.9-0.9-2.4-1-3.3-0.1c-0.5,0.4-0.7,1.1-0.7,1.7c-0.6,0-1.2,0.2-1.7,0.6C76.2,8.4,76,9.1,76,9.7
			c-0.6,0-1.3,0.1-1.8,0.6c-0.9,0.9-0.9,2.3,0,3.3c0,0,0.1,0,0.1,0.1l0,0c2,2.1,5.4,2,7.7-0.1c2.2-2,2.5-5.3,0.7-7.4
			C82.6,6.1,82.5,6,82.4,5.8z"/>
		<path class="st1" d="M100.5,5.8c0.9-1,2.4-1,3.3-0.1c0.5,0.4,0.7,1.1,0.7,1.7c0.6,0,1.2,0.1,1.7,0.6c0.5,0.4,0.7,1.1,0.7,1.7
			c0.6-0.1,1.3,0.1,1.8,0.6c0.9,0.8,0.9,2.3,0,3.3c0,0-0.1,0.1-0.1,0.1l0,0c-2,2.1-5.4,2-7.7-0.1c-2.2-2-2.4-5.3-0.7-7.4
			C100.3,6,100.4,5.9,100.5,5.8z"/>
		<path class="st1" d="M100.3,40.1c0.9,0.9,2.4,1,3.3,0.1c0.5-0.4,0.7-1.1,0.7-1.7c0.6,0,1.2-0.2,1.7-0.6c0.5-0.5,0.7-1.1,0.7-1.7
			c0.6,0,1.3-0.1,1.8-0.6c0.9-0.9,0.9-2.3,0-3.3c0,0-0.1,0-0.1-0.1h0c-2-2.1-5.4-2.1-7.7,0.1c-2.2,2.1-2.5,5.3-0.7,7.4
			C100.1,39.8,100.2,40,100.3,40.1z"/>
		<path class="st1" d="M82.6,40.1c-0.9,1-2.4,1-3.3,0.1c-0.5-0.4-0.7-1.1-0.7-1.7c-0.6,0-1.2-0.2-1.7-0.6c-0.5-0.4-0.7-1.1-0.7-1.7
			c-0.6,0-1.3-0.1-1.8-0.6c-0.9-0.9-0.9-2.3,0-3.3c0,0,0,0,0.1-0.1v0c2-2.1,5.4-2,7.7,0.1c2.2,2,2.5,5.3,0.7,7.4
			C82.8,39.8,82.7,40,82.6,40.1z"/>
		<path class="st1" d="M91.5,37.6c8,0,14.6-6.5,14.6-14.6c0-8.1-6.6-14.6-14.6-14.6v1.5c7.2,0,13,5.9,13,13.1
			c0,7.2-5.9,13.1-13,13.1V37.6z M76.9,23c0,8.1,6.6,14.6,14.6,14.6h0v-1.5h0c-7.2,0-13.1-5.8-13.1-13.1c0-7.2,5.9-13.1,13.1-13.1h0
			V8.4h0C83.5,8.4,76.9,14.9,76.9,23z"/>
		<path class="st1" d="M91.6,33.2c5.6,0,10.2-4.6,10.2-10.2c0-5.6-4.5-10.2-10.2-10.2v4h2.2l0,3.8l0.1,0.1h3.7l0,4.5h-3.8v3.9
			l-2.3,0V33.2z M91.6,12.9c-5.6,0-10.2,4.5-10.2,10.2c0,5.6,4.5,10.2,10.2,10.2l0,0v-4.1h-2.1c-0.1-1.3,0-2.5-0.1-3.8l-0.1-0.1
			h-3.7l0-4.4l3.7,0l0.1-0.2v-3.7h2.2V12.9L91.6,12.9z"/>
	</g>
	<g>
		<path class="st2" d="M6.9,69.7c-2.1,0-3.7-0.5-4.9-1.6c-1.2-1-1.8-2.5-1.8-4.2c0-0.7,0.2-2.6,1.7-4c1.2-1,2.6-1.5,4.6-1.5
			c0.9,0,1.4,0.1,2.1,0.1c0.2,0,0.5,0.1,0.7,0.1c0.3,0.1,0.5,0.1,0.7,0.1c0,0,0,0,0,0c0.2,0,0.3,0.1,0.3,0.2c0,0.1,0,0.1,0,0.2
			c0,0.1,0,0.3-0.1,0.6c0,0.2,0,0.4,0,0.7c0,0.4,0,0.7,0,0.9c0,0.1,0,0.4-0.2,0.4c-0.2,0-0.2-0.3-0.2-0.4c0-0.5-0.2-0.9-0.5-1.3
			c-0.5-0.5-1.6-0.9-2.9-0.9c-1.2,0-2,0.3-2.6,0.9c-0.9,0.8-1.3,2-1.3,3.6c0,3.4,2.6,5,4.4,5c1.2,0,2-0.1,2.6-0.8
			c0.2-0.3,0.4-0.7,0.5-0.9c0-0.2,0.1-0.3,0.2-0.3c0.1,0,0.2,0,0.2,0.3c0,0.2-0.2,1.4-0.3,1.9c-0.1,0.3-0.1,0.4-0.4,0.5
			C8.8,69.6,7.7,69.7,6.9,69.7z"/>
		<path class="st2" d="M6.9,69.7c0.9,0,2-0.1,2.6-0.3c0.2-0.1,0.3-0.2,0.4-0.4c0.1-0.5,0.3-1.7,0.3-1.9c0-0.1,0-0.2-0.1-0.2
			c-0.1,0-0.2,0.1-0.2,0.3c-0.1,0.3-0.3,0.7-0.5,0.9c-0.6,0.7-1.3,0.8-2.6,0.8c-1.9,0-4.5-1.7-4.5-5.1c0-1.4,0.3-2.7,1.3-3.7
			c0.6-0.6,1.4-0.9,2.7-0.9c1.3,0,2.4,0.4,2.9,0.9c0.4,0.4,0.5,0.9,0.5,1.3c0,0.2,0,0.3,0.2,0.3c0.1,0,0.2-0.1,0.2-0.3
			c0.1-0.3,0-1.1,0.1-1.6c0-0.5,0.1-0.6,0.1-0.8c0-0.1-0.1-0.2-0.2-0.2c-0.4-0.1-0.9-0.2-1.4-0.3c-0.7-0.1-1.2-0.1-2.1-0.1
			c-2.1,0-3.5,0.6-4.5,1.5c-1.4,1.2-1.7,2.9-1.7,3.9c0,1.4,0.4,3,1.8,4.2C3.3,69.3,4.9,69.7,6.9,69.7z"/>
		<path class="st2" d="M67.6,69.5c-0.5,0-1.6,0-2.7,0c0,0,0,0,0,0c-0.3,0-0.5,0-0.5-0.2c0-0.1,0.1-0.2,0.3-0.2c0,0,0.1,0,0.1-0.1
			c0,0,0-0.1,0-0.2l-1.1-3c0-0.1,0-0.1-0.1-0.1h-3.2c0,0-0.1,0-0.1,0.1l-0.8,2.1c-0.1,0.3-0.2,0.7-0.2,0.8c0,0.2,0.1,0.4,0.5,0.4H60
			c0.2,0,0.3,0.1,0.3,0.2c0,0.2-0.2,0.2-0.3,0.2c-0.2,0-0.5,0-0.8,0c-0.3,0-0.5,0-0.7,0c0,0-0.2,0-0.3,0c-0.3,0-0.9,0-1.4,0
			c-0.1,0-0.3,0-0.3-0.2c0-0.1,0-0.2,0.2-0.2c0.1,0,0.3,0,0.4,0c0.6-0.1,0.9-0.5,1.2-1.2l3.6-9l0-0.1c0.2-0.4,0.2-0.5,0.4-0.5
			c0.2,0,0.3,0.2,0.4,0.5c0.1,0.3,0.6,1.6,1.2,3.1c0.8,2,1.8,4.5,2.3,5.7c0.6,1.4,1,1.5,1.2,1.5c0.2,0.1,0.4,0.1,0.6,0.1
			c0.2,0,0.2,0.1,0.2,0.2C68.3,69.5,68.1,69.5,67.6,69.5z M63.2,65l-1.3-3.5c0,0,0-0.1,0-0.1c0,0,0,0,0,0.1l-1.3,3.5l1.3,0H63.2z"/>
		<path class="st2" d="M63.5,65.7c0.1,0,0.1,0,0.2,0.1l1.1,3c0.1,0.2,0,0.3-0.1,0.3c-0.1,0-0.2,0.1-0.2,0.1c0,0.1,0.2,0.1,0.4,0.1
			c1.1,0,2.2,0,2.7,0c0.5,0,0.6,0,0.6-0.1c0-0.1-0.1-0.1-0.2-0.1c-0.2,0-0.4,0-0.6-0.1c-0.3-0.1-0.7-0.3-1.3-1.6
			c-0.9-2.2-3.2-8-3.5-8.8c-0.1-0.3-0.2-0.5-0.4-0.5c-0.1,0-0.2,0.2-0.4,0.5v2.4c0,0,0,0,0,0c0,0,0.1,0.1,0.1,0.1l1.3,3.5
			c0,0.1,0,0.1-0.1,0.1h-1.3v0.7H63.5z M61.9,58.9C61.9,58.9,61.9,58.9,61.9,58.9l-3.6,9c-0.3,0.7-0.6,1.2-1.2,1.3
			c-0.1,0-0.3,0-0.4,0c-0.1,0-0.2,0.1-0.2,0.1c0,0.1,0.1,0.1,0.3,0.1c0.7,0,1.5,0,1.7,0c0.4,0,1,0,1.5,0c0.2,0,0.2,0,0.2-0.1
			c0-0.1,0-0.1-0.2-0.1h-0.2c-0.4,0-0.6-0.2-0.6-0.4c0-0.2,0.1-0.5,0.2-0.9l0.8-2.1c0-0.1,0.1-0.1,0.1-0.1h1.6V65h-1.3
			c-0.1,0-0.1,0-0.1-0.1l1.3-3.5c0-0.1,0.1-0.1,0.1-0.1V58.9z"/>
		<path class="st2" d="M117.3,69.5c-0.5,0-1.6,0-2.7,0c0,0,0,0,0,0c-0.3,0-0.5,0-0.5-0.2c0-0.1,0.1-0.2,0.3-0.2c0,0,0.1,0,0.1-0.1
			c0,0,0-0.1,0-0.2l-1.1-3c0-0.1,0-0.1-0.1-0.1h-3.2c0,0-0.1,0-0.1,0.1l-0.8,2.1c-0.1,0.3-0.2,0.7-0.2,0.8c0,0.2,0.1,0.4,0.5,0.4
			h0.2c0.2,0,0.3,0.1,0.3,0.2c0,0.2-0.2,0.2-0.3,0.2c-0.2,0-0.5,0-0.8,0c-0.3,0-0.5,0-0.7,0c0,0-0.2,0-0.3,0c-0.3,0-0.9,0-1.4,0
			c-0.1,0-0.3,0-0.3-0.2c0-0.1,0-0.2,0.2-0.2c0.1,0,0.3,0,0.4,0c0.6-0.1,0.9-0.5,1.2-1.2l3.6-9l0-0.1c0.2-0.4,0.2-0.5,0.4-0.5
			c0.2,0,0.3,0.2,0.4,0.5c0.1,0.3,0.6,1.6,1.2,3.1c0.8,2,1.8,4.5,2.3,5.7c0.6,1.4,1,1.5,1.2,1.5c0.2,0.1,0.4,0.1,0.6,0.1
			c0.2,0,0.2,0.1,0.2,0.2C118,69.5,117.8,69.5,117.3,69.5z M113,65l-1.3-3.5c0,0,0-0.1,0-0.1l0,0l-1.3,3.6l1.3,0H113z"/>
		<path class="st2" d="M113.2,65.7c0.1,0,0.1,0,0.2,0.1l1.1,3c0.1,0.2,0,0.3-0.1,0.3c-0.1,0-0.2,0.1-0.2,0.1c0,0.1,0.2,0.1,0.4,0.1
			c1.1,0,2.2,0,2.7,0c0.5,0,0.7,0,0.7-0.1c0-0.1-0.1-0.1-0.2-0.1c-0.2,0-0.4,0-0.6-0.1c-0.3-0.1-0.7-0.3-1.3-1.6
			c-0.9-2.2-3.2-8-3.5-8.8c-0.1-0.3-0.2-0.5-0.4-0.5c-0.1,0-0.2,0.2-0.4,0.5v2.4c0,0,0,0,0,0c0,0,0.1,0.1,0.1,0.1l1.3,3.5
			c0,0.1,0,0.1-0.1,0.1h-1.3v0.7H113.2z M111.7,58.9C111.6,58.9,111.6,58.9,111.7,58.9l-3.6,9c-0.3,0.7-0.6,1.2-1.2,1.3
			c-0.1,0-0.3,0-0.4,0c-0.1,0-0.2,0.1-0.2,0.1c0,0.1,0.1,0.1,0.3,0.1c0.7,0,1.5,0,1.7,0c0.4,0,1,0,1.5,0c0.2,0,0.2,0,0.2-0.1
			c0-0.1,0-0.1-0.2-0.1h-0.2c-0.4,0-0.6-0.2-0.6-0.4c0-0.2,0.1-0.5,0.2-0.9l0.8-2.1c0-0.1,0.1-0.1,0.1-0.1h1.6V65h-1.3
			c-0.1,0-0.1,0-0.1-0.1l1.3-3.5c0-0.1,0-0.1,0.1-0.1V58.9z"/>
		<path class="st2" d="M16.4,69.5c-0.9,0-1.5,0-2,0c-0.4,0-0.7,0-1.1,0c-0.1,0-0.3,0-0.5,0c-0.3,0-0.6,0-0.9,0c-0.1,0-0.3,0-0.3-0.2
			c0-0.1,0.1-0.2,0.2-0.2c0.1,0,0.3,0,0.4,0c0.2,0,0.2-0.3,0.3-0.6c0-0.5,0-1.3,0-2.3v-1.9c0-1.7,0-2,0-2.3c0-0.3-0.1-0.5-0.4-0.6
			c-0.1,0-0.2,0-0.4,0c-0.2,0-0.2-0.1-0.2-0.2c0-0.2,0.2-0.2,0.3-0.2c0.3,0,0.6,0,0.9,0c0.2,0,0.4,0,0.6,0c0.1,0,0.3,0,0.6,0
			c0.3,0,0.7,0,0.9,0c0.1,0,0.3,0,0.3,0.2c0,0.2-0.2,0.2-0.3,0.2c0,0,0,0,0,0c-0.1,0-0.3,0-0.4,0c-0.2,0-0.3,0.2-0.4,0.6v4.2
			c0,1.3,0,2.1,0.2,2.3c0.2,0.1,0.4,0.2,1.3,0.2c0.5,0,1,0,1.2-0.3c0.1-0.1,0.2-0.4,0.3-0.6c0-0.1,0-0.2,0.2-0.2
			c0.1,0,0.1,0.1,0.1,0.2c0,0.1-0.1,0.9-0.2,1.3C17.1,69.5,17,69.5,16.4,69.5z"/>
		<path class="st2" d="M14,64.4c0-1.7,0-2,0-2.3c0-0.4,0.1-0.6,0.4-0.6c0.1,0,0.3,0,0.4,0c0.1,0,0.2,0,0.2-0.1
			c0-0.1-0.1-0.1-0.2-0.1c-0.4,0-1.2,0-1.5,0c-0.3,0-1,0-1.5,0c-0.2,0-0.3,0-0.3,0.1c0,0.1,0.1,0.1,0.2,0.1c0.2,0,0.3,0,0.4,0
			c0.4,0.1,0.4,0.3,0.5,0.6c0,0.3,0,0.6,0,2.3v1.9c0,1,0,1.9-0.1,2.3c-0.1,0.3-0.1,0.5-0.3,0.6c-0.1,0-0.2,0-0.4,0
			c-0.1,0-0.2,0.1-0.2,0.1c0,0.1,0.1,0.1,0.2,0.1c0.4,0,1.1,0,1.4,0c0.9,0,1.6,0.1,3.2,0.1c0.6,0,0.6-0.1,0.7-0.3
			c0.1-0.3,0.2-1.1,0.2-1.2c0-0.1,0-0.2-0.1-0.2c-0.1,0-0.1,0.1-0.1,0.2c0,0.2-0.2,0.5-0.3,0.6c-0.3,0.3-0.7,0.3-1.3,0.3
			c-0.9,0-1.1-0.1-1.3-0.2c-0.2-0.2-0.2-1-0.2-2.4V64.4z"/>
		<path class="st2" d="M21.6,69.5c-0.4,0-0.9,0-1.2,0c-0.2,0-0.4,0-0.5,0c-0.1,0-0.3,0-0.5,0c-0.3,0-0.6,0-0.9,0
			c-0.1,0-0.3,0-0.3-0.2c0-0.1,0-0.2,0.2-0.2c0.2,0,0.3,0,0.4,0c0.2,0,0.2-0.2,0.3-0.5c0.1-0.5,0.1-1.3,0.1-2.4v-1.9
			c0-1.7,0-2,0-2.3c0-0.4-0.1-0.5-0.3-0.6c-0.1,0-0.2,0-0.4,0c0,0,0,0,0,0c-0.1,0-0.2,0-0.2-0.2c0-0.1,0.2-0.1,0.3-0.1
			c0.2,0,0.5,0,0.8,0c0.2,0,0.5,0,0.6,0c0.1,0,0.3,0,0.6,0c0.3,0,0.6,0,0.8,0c0.2,0,0.3,0.1,0.3,0.1c0,0.2-0.2,0.2-0.2,0.2
			c0,0,0,0,0,0c-0.1,0-0.2,0-0.3,0c-0.3,0-0.3,0.2-0.3,0.6c0,0.3,0,0.6,0,2.3v1.9c0,1.1,0,1.9,0,2.4c0.1,0.3,0.1,0.4,0.4,0.5
			c0.2,0,0.4,0,0.6,0c0.1,0,0.2,0.1,0.2,0.2C21.8,69.5,21.6,69.5,21.6,69.5z"/>
		<path class="st2" d="M19.2,66.3c0,1.1,0,1.9-0.1,2.4c-0.1,0.3-0.1,0.5-0.3,0.5c-0.1,0-0.2,0-0.4,0c-0.1,0-0.2,0.1-0.2,0.1
			c0,0.1,0.1,0.1,0.2,0.1c0.4,0,1.1,0,1.4,0c0.3,0,1,0,1.7,0c0.1,0,0.2,0,0.2-0.1c0-0.1-0.1-0.1-0.2-0.1c-0.2,0-0.4,0-0.6,0
			c-0.3-0.1-0.4-0.2-0.4-0.5c0-0.5,0-1.3,0-2.4v-1.9c0-1.7,0-2,0-2.3c0-0.4,0.1-0.6,0.4-0.6c0.1,0,0.2,0,0.3,0c0.1,0,0.2,0,0.2-0.1
			c0-0.1-0.1-0.1-0.2-0.1c-0.4,0-1.1,0-1.4,0c-0.3,0-1,0-1.4,0c-0.2,0-0.3,0-0.3,0.1c0,0.1,0.1,0.1,0.2,0.1c0.1,0,0.3,0,0.4,0
			c0.2,0.1,0.3,0.3,0.4,0.6c0,0.3,0,0.6,0,2.3V66.3z"/>
		<path class="st2" d="M30.8,69.6c-0.2,0-0.3-0.1-0.4-0.3c-0.4-0.4-1-1-1.7-1.7c-0.5-0.5-1-1.1-1.5-1.5c-0.8-0.8-1.7-1.8-2.2-2.3
			c-0.1-0.2-0.3-0.3-0.3-0.4l0.1,4.5c0,0.7,0.1,1.1,0.3,1.2c0.2,0,0.4,0,0.6,0c0.1,0,0.2,0,0.2,0.2c0,0.1-0.1,0.2-0.3,0.2
			c-0.5,0-0.8,0-1.1,0c-0.1,0-0.2,0-0.3,0c0,0-0.1,0-0.2,0c-0.2,0-0.6,0-1,0c-0.1,0-0.3,0-0.3-0.2c0-0.1,0-0.2,0.2-0.2
			c0.1,0,0.3,0,0.5-0.1c0.2-0.1,0.3-0.3,0.3-1.3l0.1-6.4c0-0.3,0.1-0.4,0.2-0.4c0.1,0,0.2,0.1,0.3,0.2l0.1,0.1c0,0,0.1,0.1,0.3,0.3
			c0.6,0.6,1.8,2,3.1,3.2c0.4,0.4,1.1,1.1,1.6,1.6c0.4,0.4,0.7,0.8,0.8,0.8l-0.2-4.8c0-0.7-0.1-0.8-0.3-0.9c-0.1,0-0.4,0-0.6,0
			c-0.2,0-0.2-0.1-0.2-0.2c0-0.1,0.1-0.2,0.3-0.2c0.3,0,0.7,0,0.9,0c0.2,0,0.3,0,0.4,0c0,0,0.1,0,0.2,0c0.2,0,0.5,0,0.9,0
			c0.3,0,0.3,0.1,0.3,0.2c0,0.1-0.1,0.2-0.3,0.2c0,0,0,0,0,0c-0.1,0-0.2,0-0.3,0c-0.2,0.1-0.3,0.2-0.3,0.9L31,69.3
			C31,69.4,31,69.6,30.8,69.6z"/>
		<path class="st2" d="M24.6,63.4L24.6,63.4c0.2,0.2,1.4,1.6,2.6,2.8c1.1,1.1,2.5,2.5,3.2,3.2c0.1,0.1,0.2,0.2,0.4,0.2
			c0.1,0,0.1-0.1,0.1-0.3l0.1-6.9c0-0.6,0.1-0.9,0.4-0.9c0.2,0,0.2,0,0.3,0c0.1,0,0.2-0.1,0.2-0.1c0-0.1-0.1-0.1-0.3-0.1
			c-0.5,0-0.9,0-1.1,0c-0.2,0-0.8,0-1.3,0c-0.2,0-0.3,0-0.3,0.1c0,0.1,0.1,0.1,0.2,0.1c0.2,0,0.4,0,0.6,0.1c0.3,0.1,0.4,0.3,0.4,1
			l0.1,4.9h-0.1c-0.2-0.2-1.7-1.7-2.4-2.5c-1.6-1.6-3.2-3.4-3.4-3.5c-0.2-0.2-0.3-0.3-0.4-0.3C24,61,24,61.2,24,61.4l-0.1,6.4
			c0,1-0.1,1.3-0.3,1.3c-0.2,0.1-0.4,0.1-0.5,0.1c-0.1,0-0.2,0-0.2,0.1c0,0.1,0.1,0.1,0.2,0.1c0.6,0,1.1,0,1.2,0c0.2,0,0.6,0,1.4,0
			c0.1,0,0.2,0,0.2-0.1c0-0.1-0.1-0.1-0.2-0.1c-0.2,0-0.4,0-0.6-0.1c-0.2-0.1-0.4-0.4-0.4-1.2L24.6,63.4z"/>
		<path class="st2" d="M36.8,69.5c-0.4,0-0.9,0-1.2,0c-0.2,0-0.4,0-0.5,0c-0.1,0-0.3,0-0.5,0c-0.3,0-0.6,0-0.9,0
			c-0.1,0-0.3,0-0.3-0.2c0-0.1,0.1-0.2,0.2-0.2c0.1,0,0.3,0,0.4,0c0.2,0,0.2-0.2,0.3-0.5c0.1-0.5,0.1-1.3,0.1-2.4v-1.9
			c0-1.7,0-2,0-2.3c0-0.4-0.1-0.5-0.3-0.6c-0.1,0-0.2,0-0.4,0c0,0,0,0,0,0c-0.2,0-0.2-0.1-0.2-0.2c0-0.1,0.1-0.1,0.3-0.1
			c0.2,0,0.5,0,0.8,0c0.2,0,0.5,0,0.6,0c0.1,0,0.3,0,0.5,0c0.3,0,0.6,0,0.8,0c0.2,0,0.3,0,0.3,0.1c0,0.1,0,0.2-0.2,0.2c0,0,0,0,0,0
			c-0.1,0-0.2,0-0.3,0c-0.2,0-0.3,0.2-0.3,0.6c0,0.3,0,0.6,0,2.3v1.9c0,1.1,0,1.9,0.1,2.4c0,0.3,0.1,0.5,0.4,0.5c0.2,0,0.4,0,0.6,0
			c0.1,0,0.2,0.1,0.2,0.2C37.1,69.5,37,69.5,36.8,69.5z"/>
		<path class="st2" d="M34.4,66.3c0,1.1,0,1.9-0.1,2.4c0,0.3-0.1,0.5-0.3,0.5c-0.1,0-0.2,0-0.4,0c-0.1,0-0.2,0.1-0.2,0.1
			c0,0.1,0.1,0.1,0.2,0.1c0.4,0,1.1,0,1.4,0c0.3,0,1,0,1.7,0c0.1,0,0.2,0,0.2-0.1c0-0.1-0.1-0.1-0.2-0.1c-0.2,0-0.4,0-0.6,0
			c-0.3-0.1-0.4-0.2-0.4-0.5c-0.1-0.5-0.1-1.3-0.1-2.4v-1.9c0-1.7,0-2,0-2.3c0-0.4,0.1-0.6,0.4-0.6c0.1,0,0.2,0,0.3,0
			c0.1,0,0.2,0,0.2-0.1c0-0.1-0.1-0.1-0.2-0.1c-0.4,0-1.1,0-1.3,0c-0.3,0-1,0-1.4,0c-0.2,0-0.3,0-0.3,0.1c0,0.1,0.1,0.1,0.2,0.1
			c0.1,0,0.3,0,0.4,0c0.2,0.1,0.3,0.3,0.4,0.6c0,0.3,0,0.6,0,2.3V66.3z"/>
		<path class="st2" d="M43.1,69.7c-1.6,0-2.8-0.4-3.7-1.2c-0.9-0.8-1.4-1.9-1.4-3.2c0-0.7,0.2-2,1.3-3c0.9-0.8,2-1.2,3.5-1.2
			c0.6,0,1,0,1.5,0.1l0.1,0l0.4,0.1c0.2,0,0.4,0.1,0.7,0.1c0,0,0,0,0,0c0.1,0,0.2,0.1,0.2,0.2c0,0,0,0.1,0,0.1c0,0.1,0,0.2,0,0.5
			c0,0.2,0,0.4,0,0.6c0,0.2,0,0.4,0,0.5c0,0.1-0.1,0.3-0.2,0.3c-0.2,0-0.2-0.2-0.2-0.3c0-0.4-0.2-0.7-0.4-0.9
			c-0.4-0.4-1.2-0.7-2.2-0.7c-0.9,0-1.5,0.2-2,0.7c-0.7,0.6-1,1.5-1,2.8c0,2.6,2,3.8,3.4,3.8c0.9,0,1.5-0.1,1.9-0.6
			c0.2-0.2,0.3-0.5,0.4-0.7c0-0.1,0.1-0.2,0.2-0.2c0.1,0,0.2,0.1,0.2,0.2c0,0.1-0.1,1.1-0.2,1.5c-0.1,0.2-0.1,0.3-0.3,0.3
			C44.7,69.6,43.8,69.7,43.1,69.7z"/>
		<path class="st2" d="M43.1,69.6c0.7,0,1.5-0.1,2-0.3c0.2-0.1,0.2-0.1,0.3-0.3c0.1-0.4,0.2-1.3,0.2-1.5c0-0.1,0-0.2-0.1-0.2
			c-0.1,0-0.1,0.1-0.1,0.2c-0.1,0.2-0.2,0.5-0.4,0.7c-0.4,0.5-1,0.6-2,0.6c-1.5,0-3.4-1.3-3.4-3.9c0-1,0.2-2.1,1-2.8
			c0.5-0.4,1.1-0.7,2.1-0.7c1,0,1.8,0.3,2.2,0.7c0.3,0.3,0.4,0.6,0.4,1c0,0.2,0,0.3,0.1,0.3c0.1,0,0.1-0.1,0.1-0.3
			c0-0.2,0-0.8,0-1.2c0-0.4,0.1-0.5,0.1-0.6c0-0.1-0.1-0.1-0.2-0.1c-0.3-0.1-0.7-0.1-1.1-0.2c-0.5-0.1-0.9-0.1-1.6-0.1
			c-1.6,0-2.6,0.4-3.4,1.2c-1.1,1-1.3,2.2-1.3,3c0,1,0.3,2.3,1.4,3.2C40.4,69.3,41.7,69.6,43.1,69.6z"/>
		<path class="st2" d="M54.3,69.5c-0.4,0-1.2,0-2.1,0c0,0,0,0,0,0c-0.2,0-0.4,0-0.4-0.1c0-0.1,0.1-0.2,0.2-0.2c0,0,0,0,0.1-0.1
			c0,0,0-0.1,0-0.1l-0.9-2.3c0,0,0,0-0.1,0h-2.4l-0.1,0l-0.6,1.6c-0.1,0.2-0.2,0.5-0.2,0.6c0,0.1,0,0.3,0.4,0.3h0.2
			c0.1,0,0.2,0,0.2,0.2s-0.2,0.2-0.3,0.2c-0.2,0-0.4,0-0.6,0c-0.2,0-0.4,0-0.6,0c0,0-0.1,0-0.3,0c-0.3,0-0.6,0-1,0
			c-0.1,0-0.3,0-0.3-0.2c0-0.1,0.1-0.2,0.2-0.2h0.3c0.4-0.1,0.6-0.4,0.9-1l2.7-6.8l0,0v0c0.1-0.3,0.2-0.4,0.3-0.4
			c0.1,0,0.2,0.1,0.3,0.4c0.1,0.3,0.5,1.2,1,2.4c0.6,1.5,1.3,3.4,1.7,4.3c0.4,0.9,0.7,1.1,0.9,1.2c0.1,0,0.3,0,0.4,0c0,0,0,0,0,0
			c0.1,0,0.2,0.1,0.2,0.2C54.8,69.5,54.6,69.5,54.3,69.5z M50.9,66l-1-2.7L49,66l1,0H50.9z"/>
		<path class="st2" d="M51.1,66.6c0.1,0,0.1,0,0.1,0.1l0.9,2.3c0.1,0.1,0,0.2-0.1,0.3c-0.1,0-0.1,0-0.1,0.1c0,0.1,0.1,0.1,0.3,0.1
			c0.9,0,1.7,0,2.1,0c0.4,0,0.5,0,0.5-0.1c0-0.1-0.1-0.1-0.2-0.1c-0.1,0-0.3,0-0.4,0c-0.2-0.1-0.5-0.2-1-1.2
			c-0.7-1.7-2.4-6.1-2.7-6.7c-0.1-0.2-0.2-0.3-0.3-0.3c-0.1,0-0.2,0.1-0.3,0.4v1.8h0c0,0,0,0.1,0.1,0.1l1,2.7c0,0,0,0.1-0.1,0.1h-1
			v0.5H51.1z M49.9,61.4C49.9,61.4,49.9,61.4,49.9,61.4l-2.8,6.9c-0.2,0.5-0.4,0.9-0.9,1c-0.1,0-0.3,0-0.3,0c-0.1,0-0.1,0-0.1,0.1
			c0,0.1,0.1,0.1,0.2,0.1c0.5,0,1.1,0,1.3,0c0.3,0,0.8,0,1.1,0c0.1,0,0.2,0,0.2-0.1c0-0.1-0.1-0.1-0.2-0.1h-0.2
			c-0.3,0-0.4-0.1-0.4-0.3c0-0.1,0.1-0.4,0.2-0.6l0.6-1.6c0-0.1,0.1-0.1,0.1-0.1h1.2v-0.5h-1c0,0-0.1-0.1,0-0.1l1-2.7
			c0-0.1,0-0.1,0.1-0.1V61.4z"/>
		<path class="st2" d="M75.9,69.6c-0.1,0-0.2-0.1-0.3-0.2l-0.1-0.1c-0.3-0.3-0.9-0.9-1.5-1.4c-0.6-0.6-1.2-1.2-1.8-1.8
			c-1.2-1.2-2.4-2.5-2.6-2.8l0.2,4.5c0,0.9,0.2,1.1,0.4,1.2c0.2,0.1,0.4,0.1,0.5,0.1c0.1,0,0.2,0,0.2,0.2s-0.2,0.2-0.3,0.2
			c-0.5,0-0.8,0-1,0c-0.1,0-0.2,0-0.3,0c0,0-0.1,0-0.2,0c-0.2,0-0.6,0-1,0c-0.2,0-0.3,0-0.3-0.2c0-0.1,0-0.2,0.2-0.2
			c0.2,0,0.3,0,0.5-0.1c0.2-0.1,0.3-0.3,0.3-1.3l0.1-6.4c0-0.1,0-0.4,0.2-0.4c0.1,0,0.3,0.1,0.4,0.3c0.1,0.1,0.1,0.2,0.3,0.3
			c0.6,0.6,1.8,2,3.1,3.2c0.5,0.5,1.3,1.3,1.9,1.9c0.3,0.3,0.5,0.5,0.5,0.6l-0.1-4.8c0-0.7-0.1-0.8-0.4-0.9c-0.1,0-0.4,0-0.6,0
			c-0.2,0-0.2-0.1-0.2-0.2c0-0.2,0.2-0.2,0.3-0.2c0.3,0,0.7,0,0.9,0c0.2,0,0.3,0,0.4,0c0,0,0.1,0,0.2,0c0.2,0,0.5,0,0.8,0
			c0.1,0,0.3,0,0.3,0.2c0,0.1-0.1,0.2-0.3,0.2c0,0,0,0,0,0c-0.1,0-0.2,0-0.3,0c-0.3,0.1-0.3,0.3-0.4,0.9l-0.1,6.9
			C76.1,69.4,76.1,69.6,75.9,69.6z"/>
		<path class="st2" d="M69.7,63.4L69.7,63.4c0.2,0.2,1.5,1.6,2.6,2.8c1.1,1.1,2.5,2.5,3.2,3.2c0.1,0.1,0.3,0.2,0.4,0.2
			c0.1,0,0.2-0.1,0.2-0.3l0.1-6.9c0-0.6,0.1-0.9,0.4-0.9c0.1,0,0.2,0,0.3,0c0.1,0,0.2-0.1,0.2-0.1c0-0.1-0.1-0.1-0.3-0.1
			c-0.5,0-0.9,0-1.1,0c-0.2,0-0.8,0-1.3,0c-0.2,0-0.3,0-0.3,0.1c0,0.1,0,0.1,0.2,0.1c0.2,0,0.4,0,0.6,0.1c0.3,0.1,0.4,0.3,0.4,1
			l0.1,4.9h-0.1c-0.2-0.2-1.7-1.7-2.4-2.5c-1.6-1.6-3.2-3.4-3.4-3.5c-0.2-0.2-0.3-0.3-0.4-0.3C69,61,69,61.2,69,61.4l-0.1,6.4
			c0,1-0.1,1.3-0.3,1.3c-0.2,0.1-0.3,0.1-0.5,0.1c-0.1,0-0.2,0-0.2,0.1c0,0.1,0.1,0.1,0.3,0.1c0.5,0,1.1,0,1.2,0c0.2,0,0.6,0,1.3,0
			c0.2,0,0.2,0,0.2-0.1c0-0.1-0.1-0.1-0.2-0.1c-0.2,0-0.4,0-0.5-0.1c-0.2-0.1-0.4-0.4-0.4-1.2L69.7,63.4z"/>
		<path class="st2" d="M83.3,69.7c-2.4,0-5.1-1.1-5.1-4.3c0-2.2,1.3-3.3,1.9-3.6c1.1-0.7,2.1-0.7,3-0.7c0.7,0,1.7,0.1,1.9,0.2
			c0.4,0.1,0.7,0.1,0.9,0.1c0.2,0,0.2,0.1,0.2,0.2c0,0,0,0.1,0,0.1c0,0.2-0.1,0.6-0.1,1.6c0,0.1,0,0.3-0.2,0.3c0,0-0.2,0-0.2-0.2
			c-0.1-0.3-0.1-0.6-0.4-0.9c-0.3-0.3-1.2-0.8-2.4-0.8c-0.7,0-1.4,0.1-2.1,0.7c-0.7,0.6-1,1.4-1,2.6c0,2.4,1.5,4,3.7,4
			c0.3,0,0.7,0,0.9-0.1c0.1-0.1,0.2-0.2,0.2-0.4v-1c0-0.5,0-1,0-1.3c0-0.4-0.1-0.5-0.4-0.6c-0.1,0-0.3-0.1-0.4-0.1
			c-0.1,0-0.2,0-0.2-0.1c0-0.2,0.2-0.2,0.3-0.2c0.3,0,0.7,0,1,0c0.2,0,0.4,0,0.6,0c0.2,0,0.4,0,0.6,0c0.2,0,0.5,0,0.6,0
			c0.1,0,0.3,0,0.3,0.2c0,0.1-0.1,0.1-0.2,0.1c0,0-0.1,0-0.2,0l-0.1,0c-0.3,0-0.4,0.2-0.4,0.6v2.5c0,0.3,0,0.3-0.2,0.4
			C85.3,69.5,84.3,69.7,83.3,69.7z"/>
		<path class="st2" d="M86,67.5c0-0.5,0-1,0-1.3c0-0.4,0.1-0.6,0.4-0.6c0.1,0,0.2-0.1,0.3-0.1c0.1,0,0.2,0,0.2-0.1
			c0-0.1-0.1-0.1-0.2-0.1c-0.3,0-0.9,0-1.3,0c-0.3,0-1,0-1.6,0c-0.2,0-0.2,0-0.2,0.1c0,0.1,0.1,0.1,0.2,0.1c0.2,0,0.3,0,0.4,0.1
			c0.4,0.1,0.5,0.2,0.5,0.6c0,0.3,0,0.7,0,1.3v1c0,0.2-0.1,0.3-0.2,0.4C84.2,69,83.8,69,83.5,69c-2.3,0-3.8-1.7-3.8-4.1
			c0-1.4,0.4-2.2,1-2.7c0.8-0.6,1.6-0.7,2.2-0.7c1.2,0,2.1,0.5,2.4,0.9c0.3,0.3,0.3,0.6,0.4,0.9c0,0.1,0,0.1,0.1,0.1
			c0.1,0,0.1-0.1,0.1-0.2c0-1.3,0.1-1.6,0.1-1.8c0-0.1,0-0.1-0.1-0.1c-0.3,0-0.6-0.1-0.9-0.1c-0.2-0.1-1.2-0.2-1.9-0.2
			c-0.9,0-1.9,0.1-2.9,0.7c-1,0.6-1.9,1.8-1.9,3.6c0,3,2.3,4.3,5,4.3c0.9,0,1.9-0.1,2.6-0.5C86,69,86,69,86,68.7V67.5z"/>
		<path class="st2" d="M92.9,69.5c-0.9,0-1.5,0-2,0c-0.4,0-0.7,0-1.1,0c-0.1,0-0.3,0-0.5,0c-0.3,0-0.6,0-0.9,0c-0.1,0-0.3,0-0.3-0.2
			c0-0.1,0-0.2,0.2-0.2c0.2,0,0.3,0,0.4,0c0.2,0,0.2-0.2,0.3-0.5c0.1-0.5,0.1-1.3,0.1-2.3v-1.9c0-1.7,0-2,0-2.3
			c0-0.3-0.1-0.5-0.4-0.6c-0.1,0-0.2,0-0.4,0c-0.1,0-0.2,0-0.2-0.2c0-0.2,0.2-0.2,0.3-0.2c0.3,0,0.6,0,0.9,0c0.2,0,0.4,0,0.5,0
			c0.1,0,0.3,0,0.6,0c0.3,0,0.7,0,0.9,0c0.1,0,0.3,0,0.3,0.2c0,0.2-0.2,0.2-0.2,0.2c-0.1,0-0.3,0-0.4,0c-0.2,0-0.3,0.2-0.3,0.6
			c0,0.3,0,0.6,0,2.3v1.9c0,1.3,0,2.1,0.2,2.3c0.2,0.1,0.4,0.2,1.2,0.2c0.6,0,1,0,1.3-0.3c0.1-0.1,0.2-0.4,0.2-0.6
			c0-0.1,0.1-0.2,0.2-0.2c0.1,0,0.1,0.1,0.1,0.2c0,0.1-0.1,0.9-0.2,1.3C93.5,69.5,93.4,69.5,92.9,69.5z"/>
		<path class="st2" d="M90.4,64.4c0-1.7,0-2,0-2.3c0-0.4,0.1-0.6,0.4-0.6c0.1,0,0.3,0,0.4,0c0.1,0,0.2,0,0.2-0.1
			c0-0.1-0.1-0.1-0.2-0.1c-0.4,0-1.2,0-1.5,0c-0.3,0-1,0-1.5,0c-0.2,0-0.2,0-0.2,0.1c0,0.1,0.1,0.1,0.2,0.1c0.1,0,0.3,0,0.4,0
			c0.4,0.1,0.4,0.3,0.5,0.6c0,0.3,0,0.6,0,2.3v1.9c0,1,0,1.9-0.1,2.3c0,0.3-0.1,0.5-0.3,0.6c-0.1,0-0.2,0-0.4,0
			c-0.1,0-0.2,0.1-0.2,0.1c0,0.1,0.1,0.1,0.2,0.1c0.4,0,1.1,0,1.4,0c0.9,0,1.6,0.1,3.1,0.1c0.5,0,0.6-0.1,0.7-0.3
			c0.1-0.3,0.2-1.1,0.2-1.2c0-0.1,0-0.2-0.1-0.2c-0.1,0-0.1,0.1-0.1,0.2c0,0.2-0.1,0.5-0.3,0.6c-0.3,0.3-0.7,0.3-1.3,0.3
			c-0.8,0-1.1-0.1-1.3-0.2c-0.2-0.2-0.2-1-0.2-2.4V64.4z"/>
		<path class="st2" d="M98.8,69.7c-3,0-4.4-2.2-4.4-4.3c0-2.1,1.4-4.3,4.4-4.3l0.1,0v0c2.8,0,4.5,1.6,4.5,4.1c0,2.6-1.8,4.5-4.5,4.5
			L98.8,69.7L98.8,69.7z M98.9,69c0.1,0,0.2,0,0.3,0c0,0,0,0,0,0c0.7,0,2.5-0.3,2.5-3.5c0-2.2-1.2-3.8-2.9-3.9c0,0-0.1,0-0.1,0
			c0,0-0.1,0-0.1,0c-1,0-2.6,0.4-2.6,3.4c0,2.2,1.1,3.7,2.8,4v0L98.9,69L98.9,69L98.9,69z"/>
		<path class="st2" d="M98.8,69.6c2.8,0,4.5-2,4.5-4.5c0-2.5-1.7-4.1-4.4-4.1c0,0,0,0-0.1,0v0.5c1.7,0.1,2.9,1.6,2.9,3.9
			c0,3.1-1.8,3.5-2.5,3.5c-0.2,0-0.3,0-0.4,0V69.6z M98.8,69.6C98.8,69.6,98.8,69.6,98.8,69.6l0.1-0.6c-1.8-0.2-2.9-1.9-2.9-4
			c0-2.7,1.4-3.4,2.7-3.4c0.1,0,0.2,0,0.3,0v-0.5c-3.2,0-4.4,2.4-4.4,4.3C94.4,67.3,95.6,69.6,98.8,69.6z"/>
		<path class="st2" d="M128.3,69.5c-0.3,0-1.8,0-2.2-0.1c0,0,0,0,0,0c-0.2,0-0.4,0-0.4-0.2c0-0.1,0.1-0.1,0.1-0.2c0,0,0.1-0.1,0-0.4
			l-0.6-4.7l-2.3,4.8c-0.2,0.5-0.3,0.7-0.4,0.7c-0.1,0-0.2-0.1-0.3-0.4l-0.1-0.2l-0.3-0.7c-0.4-0.7-0.8-1.6-0.9-1.8
			c-0.1-0.2-0.7-1.4-1.1-2.3l-0.6,4.2c0,0.2,0,0.3,0,0.5c0,0.2,0.1,0.3,0.3,0.3c0.2,0.1,0.4,0.1,0.5,0.1c0.1,0,0.2,0.1,0.2,0.1
			c0,0.2-0.2,0.2-0.3,0.2c-0.3,0-0.6,0-0.8,0c-0.1,0-0.3,0-0.4,0c-0.1,0-0.2,0-0.4,0c-0.2,0-0.5,0-0.7,0c-0.2,0-0.2-0.1-0.2-0.2
			c0-0.1,0.2-0.1,0.2-0.1c0.1,0,0.2,0,0.3,0c0.3,0,0.3-0.4,0.4-0.8l1.1-7.1c0-0.2,0.1-0.3,0.2-0.3c0.1,0,0.2,0.1,0.3,0.4l2.9,6
			l2.9-6.1c0.1-0.2,0.1-0.3,0.3-0.3c0.2,0,0.2,0.2,0.3,0.4l1,6.7c0.1,0.7,0.2,1,0.5,1c0.3,0.1,0.5,0.1,0.7,0.1
			c0.2,0,0.2,0.1,0.2,0.1C128.6,69.5,128.3,69.5,128.3,69.5z"/>
		<path class="st2" d="M118.2,68.4c-0.1,0.4-0.1,0.8-0.4,0.9c-0.2,0-0.2,0-0.3,0c-0.1,0-0.2,0-0.2,0.1c0,0.1,0.1,0.1,0.2,0.1
			c0.4,0,0.9,0,1.1,0c0.2,0,0.7,0,1.1,0c0.2,0,0.3,0,0.3-0.1c0-0.1-0.1-0.1-0.2-0.1c-0.1,0-0.3,0-0.5-0.1c-0.2,0-0.3-0.1-0.3-0.3
			c0-0.2,0-0.3,0-0.5l0.6-4.3h0c0.4,0.8,1,2.2,1.1,2.4c0.1,0.3,1,2,1.2,2.5c0.2,0.3,0.3,0.5,0.4,0.5c0.1,0,0.2-0.1,0.4-0.6l2.4-4.9
			h0l0.6,4.8c0.1,0.3,0,0.4-0.1,0.5c-0.1,0.1-0.1,0.1-0.1,0.1c0,0.1,0.1,0.1,0.3,0.1c0.4,0.1,1.9,0.1,2.2,0.1c0.2,0,0.3,0,0.3-0.1
			c0-0.1-0.1-0.1-0.2-0.1c-0.1,0-0.4,0-0.7-0.1c-0.3-0.1-0.4-0.4-0.5-1.1l-1-6.7c-0.1-0.2-0.1-0.3-0.2-0.3c-0.1,0-0.2,0.1-0.2,0.3
			l-3,6.2l-3-6.1c-0.1-0.3-0.2-0.3-0.3-0.3c-0.1,0-0.2,0.1-0.2,0.3L118.2,68.4z"/>
		<path class="st2" d="M133.9,69.5c-1,0-1.7,0-2.2,0c-0.3,0-0.6,0-0.8,0c-0.1,0-0.3,0-0.5,0c-0.3,0-0.6,0-0.9,0
			c-0.1,0-0.3,0-0.3-0.2c0-0.1,0.1-0.2,0.2-0.2c0.1,0,0.3,0,0.4,0c0.2,0,0.2-0.2,0.3-0.5c0.1-0.5,0.1-1.3,0.1-2.3v-1.9
			c0-1.7,0-2,0-2.3c0-0.3-0.1-0.5-0.4-0.6c-0.1,0-0.3,0-0.4,0c-0.2,0-0.2-0.1-0.2-0.2c0-0.2,0.2-0.2,0.3-0.2c0.3,0,0.7,0,1,0
			c0.2,0,0.4,0,0.6,0h2.7c0.2,0,0.4-0.1,0.5-0.1c0,0,0.1,0,0.1,0c0,0,0.1,0,0.1,0c0.1,0,0.1,0,0.1,0.2c0,0,0,0.1,0,0.1
			c0,0.1-0.1,0.3-0.1,0.6c0,0.1,0,0.6-0.1,0.7c0,0.2-0.1,0.2-0.2,0.2c-0.2,0-0.2-0.2-0.2-0.2c0-0.1,0-0.2,0-0.4
			c-0.1-0.2-0.2-0.3-0.7-0.4c-0.2,0-1.3-0.1-1.5-0.1c0,0,0,0,0,0.1v2.8c0.5,0,1,0,1.3,0c0.2,0,0.4,0,0.5,0c0.2,0,0.4,0,0.5-0.1
			c0.1-0.1,0.2-0.2,0.2-0.2c0,0,0.1,0,0.1,0.1c0,0,0,0,0,0.1c0,0.1,0,0.3-0.1,0.7c0,0.2-0.1,0.6-0.1,0.7c0,0.1,0,0.3-0.2,0.3
			c-0.1,0-0.1-0.1-0.1-0.2c0,0,0-0.1,0-0.2c0-0.1,0-0.1,0-0.2c0-0.2-0.1-0.3-0.6-0.4c0,0-0.4,0-0.7,0c-0.3,0-0.7,0-0.8,0l0,0.9V68
			c0,0.7,0.2,0.9,1.3,0.9c0.3,0,0.7,0,1-0.1c0.3-0.1,0.4-0.3,0.5-0.8c0-0.1,0-0.2,0.2-0.2c0.1,0,0.1,0.2,0.1,0.3
			c0,0.2-0.1,1-0.2,1.2C134.5,69.5,134.4,69.5,133.9,69.5z"/>
		<path class="st2" d="M130.3,66.3c0,1,0,1.9-0.1,2.3c0,0.3-0.1,0.5-0.3,0.6c-0.1,0-0.2,0-0.4,0c-0.1,0-0.2,0.1-0.2,0.1
			c0,0.1,0.1,0.1,0.2,0.1c0.4,0,1.1,0,1.4,0c0.6,0,1.4,0.1,3,0.1c0.4,0,0.5,0,0.6-0.3c0.1-0.2,0.2-1,0.2-1.2c0-0.1,0-0.2-0.1-0.2
			c-0.1,0-0.1,0.1-0.1,0.2c-0.1,0.4-0.2,0.7-0.5,0.8c-0.3,0.1-0.7,0.1-1,0.1c-1.1,0-1.3-0.2-1.3-0.9c0-0.3,0-1.3,0-1.7v-0.9
			c0-0.1,0-0.1,0.1-0.1c0.3,0,1.3,0,1.5,0c0.4,0.1,0.6,0.2,0.6,0.4c0,0.1,0,0.3,0.1,0.4c0,0.1,0,0.1,0.1,0.1c0.1,0,0.1-0.1,0.1-0.2
			c0-0.1,0-0.5,0.1-0.7c0-0.6,0.1-0.8,0.1-0.8c0-0.1,0-0.1-0.1-0.1c-0.1,0-0.1,0.1-0.2,0.1c-0.1,0.1-0.3,0.1-0.5,0.2
			c-0.2,0-1.5,0-1.7,0c-0.1,0-0.1-0.1-0.1-0.1v-2.8c0-0.1,0-0.1,0.1-0.1c0.2,0,1.4,0,1.6,0.1c0.5,0.1,0.6,0.2,0.7,0.4
			c0.1,0.1,0.1,0.3,0.1,0.4c0,0.1,0,0.2,0.1,0.2c0.1,0,0.1-0.1,0.1-0.1c0-0.1,0.1-0.6,0.1-0.7c0.1-0.5,0.1-0.6,0.1-0.7
			c0-0.1,0-0.1-0.1-0.1c-0.1,0-0.1,0-0.2,0c-0.1,0-0.3,0.1-0.5,0.1c-0.2,0-2.4,0-2.7,0c-0.3,0-1,0-1.6,0c-0.2,0-0.2,0-0.2,0.1
			c0,0.1,0.1,0.1,0.2,0.1c0.2,0,0.3,0,0.4,0c0.4,0.1,0.4,0.3,0.5,0.6c0,0.3,0,0.6,0,2.3V66.3z"/>
		<path class="st2" d="M143.4,69.5c-0.6,0-0.9-0.1-1.2-0.2c-0.5-0.3-0.9-0.8-1.5-1.6c-0.2-0.2-0.3-0.5-0.5-0.7
			c-0.3-0.4-0.5-0.7-0.6-0.8h-0.1l0-0.1c0,0,0,0-0.1,0l-1,0l0,0.2c0,1,0,1.9,0.1,2.3c0,0.3,0.1,0.5,0.4,0.5c0.2,0,0.4,0,0.5,0
			c0,0,0,0,0,0c0.1,0,0.2,0.1,0.2,0.2c0,0.2-0.2,0.2-0.3,0.2c-0.4,0-0.9,0-1.3,0c-0.2,0-0.3,0-0.3,0c-0.1,0-0.2,0-0.4,0
			c-0.3,0-0.6,0-0.9,0c-0.1,0-0.3,0-0.3-0.2c0-0.1,0.1-0.2,0.2-0.2c0.1,0,0.3,0,0.4,0c0.2,0,0.2-0.2,0.3-0.5
			c0.1-0.5,0.1-1.3,0.1-2.3v-4.2c0-0.4-0.1-0.5-0.4-0.6c-0.1,0-0.3,0-0.4,0c-0.2,0-0.2-0.1-0.2-0.2c0-0.2,0.2-0.2,0.3-0.2
			c0.4,0,0.8,0,1.1,0c0.2,0,0.3,0,0.4,0c0.2,0,0.5,0,0.8,0c0.3,0,0.6,0,0.7,0h0.2v0l0.1,0v0c0.5,0,1.1,0.1,1.7,0.5
			c0.3,0.2,0.8,0.7,0.8,1.6c0,0.9-0.4,1.6-1.4,2.4l0.4,0.5c0.8,1,1.4,1.8,1.9,2.4c0.6,0.6,1,0.7,1.2,0.7c0.1,0,0.2,0,0.3,0
			c0,0,0,0,0,0c0.1,0,0.2,0.1,0.2,0.2c0,0.2-0.2,0.2-0.3,0.2H143.4z M139.1,61.8c-0.3,0-0.5,0-0.6,0c0,0-0.1,0-0.1,0.1v3.3
			c0,0.1,0,0.1,0.1,0.1c0.2,0.1,0.5,0.1,0.8,0.1c0,0,0.1,0,0.1,0c0,0,0,0,0.1,0v0h0.1c0.2,0,0.3,0,0.5-0.2c0.2-0.2,0.6-0.6,0.6-1.6
			c0-1.4-0.8-1.8-1.1-1.9C139.4,61.8,139.3,61.8,139.1,61.8z"/>
		<path class="st2" d="M139.6,66.1C139.6,66.1,139.7,66.1,139.6,66.1c0.2,0.2,0.7,0.9,1.1,1.5c0.6,0.9,1,1.4,1.5,1.6
			c0.3,0.2,0.6,0.2,1.2,0.2h1c0.1,0,0.2,0,0.2-0.1c0-0.1-0.1-0.1-0.1-0.1c-0.1,0-0.2,0-0.3,0c-0.2,0-0.6-0.1-1.2-0.7
			c-0.6-0.7-1.4-1.7-2.4-2.9c1.1-0.9,1.4-1.6,1.4-2.4c0-0.8-0.4-1.3-0.7-1.5c-0.5-0.3-1.1-0.4-1.7-0.5v0.6c0.6,0.2,1.2,0.7,1.2,1.9
			c0,0.9-0.3,1.4-0.6,1.6c-0.2,0.1-0.3,0.2-0.5,0.2V66.1z M137.1,66.3c0,1,0,1.9-0.1,2.3c0,0.3-0.1,0.5-0.3,0.6c-0.1,0-0.2,0-0.4,0
			c-0.1,0-0.2,0.1-0.2,0.1c0,0.1,0.1,0.1,0.2,0.1c0.4,0,1.1,0,1.3,0c0.2,0,1,0,1.6,0c0.1,0,0.2,0,0.2-0.1c0-0.1-0.1-0.1-0.1-0.1
			c-0.1,0-0.4,0-0.5,0c-0.3-0.1-0.4-0.3-0.4-0.6c-0.1-0.5-0.1-1.3-0.1-2.3v-0.2c0-0.1,0-0.1,0.1-0.1l1,0c0.1,0,0.1,0,0.1,0v-0.6
			c-0.1,0-0.2,0-0.2,0c-0.3,0-0.6-0.1-0.8-0.1c-0.1,0-0.1-0.1-0.1-0.2v-3.3c0-0.1,0-0.1,0.1-0.2c0.1,0,0.3,0,0.6,0
			c0.2,0,0.3,0,0.5,0.1v-0.6c-0.1,0-0.2,0-0.3,0c-0.3,0-1.2,0-1.5,0c-0.2,0-0.9,0-1.5,0c-0.2,0-0.2,0-0.2,0.1c0,0.1,0.1,0.1,0.2,0.1
			c0.2,0,0.3,0,0.4,0c0.3,0.1,0.4,0.3,0.5,0.6c0,0.3,0,0.6,0,2.3V66.3z"/>
		<path class="st2" d="M147.7,69.5c-0.4,0-0.9,0-1.2,0c-0.2,0-0.4,0-0.5,0c-0.1,0-0.3,0-0.5,0c-0.3,0-0.6,0-0.9,0
			c-0.1,0-0.3,0-0.3-0.2c0-0.1,0.1-0.2,0.2-0.2c0.2,0,0.3,0,0.4,0c0.2,0,0.2-0.2,0.3-0.5c0.1-0.5,0.1-1.3,0.1-2.4v-1.9
			c0-1.7,0-2,0-2.3c0-0.4-0.1-0.5-0.3-0.6c-0.1,0-0.2,0-0.4,0c0,0,0,0,0,0c-0.2,0-0.2-0.1-0.2-0.2c0-0.1,0.2-0.1,0.3-0.1
			c0.2,0,0.5,0,0.8,0c0.2,0,0.5,0,0.6,0c0.1,0,0.3,0,0.5,0c0.3,0,0.6,0,0.8,0c0.2,0,0.3,0.1,0.3,0.1c0,0.2-0.2,0.2-0.2,0.2
			c0,0,0,0,0,0c-0.1,0-0.2,0-0.3,0c-0.2,0-0.3,0.2-0.3,0.6c0,0.3,0,0.6,0,2.3v1.9c0,1.1,0,1.9,0.1,2.4c0,0.3,0.1,0.5,0.4,0.5
			c0.2,0,0.4,0,0.6,0c0.1,0,0.2,0.1,0.2,0.2C148,69.5,147.8,69.5,147.7,69.5z"/>
		<path class="st2" d="M145.4,66.3c0,1.1,0,1.9-0.1,2.4c0,0.3-0.1,0.5-0.3,0.5c-0.1,0-0.2,0-0.4,0c-0.1,0-0.2,0.1-0.2,0.1
			c0,0.1,0.1,0.1,0.2,0.1c0.4,0,1.1,0,1.4,0c0.3,0,1,0,1.7,0c0.1,0,0.2,0,0.2-0.1c0-0.1-0.1-0.1-0.2-0.1c-0.2,0-0.4,0-0.6,0
			c-0.3-0.1-0.4-0.2-0.4-0.5c-0.1-0.5-0.1-1.3-0.1-2.4v-1.9c0-1.7,0-2,0-2.3c0-0.4,0.1-0.6,0.4-0.6c0.1,0,0.2,0,0.3,0
			c0.1,0,0.2,0,0.2-0.1c0-0.1-0.1-0.1-0.2-0.1c-0.4,0-1.1,0-1.3,0c-0.3,0-1,0-1.4,0c-0.2,0-0.3,0-0.3,0.1c0,0.1,0.1,0.1,0.2,0.1
			c0.1,0,0.3,0,0.4,0c0.2,0.1,0.3,0.3,0.4,0.6c0,0.3,0,0.6,0,2.3V66.3z"/>
		<path class="st2" d="M154.1,69.7c-1.6,0-2.8-0.4-3.8-1.2c-0.9-0.8-1.4-1.9-1.4-3.2c0-0.6,0.1-1.9,1.3-3c0.9-0.8,2-1.2,3.5-1.2
			c0.6,0,0.9,0,1.4,0.1l0.2,0l0.4,0.1c0.2,0,0.4,0.1,0.7,0.1h0c0.1,0,0.2,0.1,0.2,0.2c0,0,0,0.1,0,0.1c0,0.1,0,0.2,0,0.5
			c0,0.3,0,1,0,1.2c0,0.2-0.1,0.3-0.2,0.3c-0.2,0-0.2-0.2-0.2-0.3c0-0.3-0.2-0.7-0.4-0.9c-0.4-0.4-1.2-0.7-2.2-0.7
			c-0.9,0-1.5,0.2-2,0.7c-0.9,0.8-1,2-1,2.8c0,2.6,2,3.8,3.4,3.8c1,0,1.5-0.2,1.9-0.6c0.2-0.2,0.3-0.5,0.4-0.7
			c0-0.1,0.1-0.2,0.2-0.2c0.1,0,0.2,0.1,0.2,0.2c0,0.1-0.1,1.1-0.2,1.5c-0.1,0.2-0.1,0.3-0.3,0.3C155.6,69.6,154.7,69.7,154.1,69.7z
			"/>
		<path class="st2" d="M154.1,69.6c0.7,0,1.5-0.1,2-0.3c0.2-0.1,0.2-0.1,0.3-0.3c0.1-0.4,0.2-1.3,0.2-1.5c0-0.1,0-0.2-0.1-0.2
			c-0.1,0-0.1,0.1-0.1,0.2c-0.1,0.2-0.2,0.5-0.4,0.7c-0.4,0.5-1,0.6-2,0.6c-1.5,0-3.4-1.3-3.4-3.9c0-1,0.2-2.1,1-2.8
			c0.5-0.4,1.1-0.7,2.1-0.7c1,0,1.8,0.3,2.2,0.7c0.3,0.3,0.4,0.6,0.4,1c0,0.2,0,0.3,0.1,0.3c0.1,0,0.1-0.1,0.1-0.3
			c0-0.2,0-0.8,0-1.2c0-0.4,0.1-0.5,0.1-0.6c0-0.1-0.1-0.1-0.2-0.1c-0.3-0.1-0.7-0.1-1.1-0.2c-0.5-0.1-0.9-0.1-1.6-0.1
			c-1.6,0-2.6,0.4-3.5,1.2c-1,1-1.3,2.2-1.3,3c0,1,0.3,2.3,1.3,3.2C151.3,69.3,152.6,69.6,154.1,69.6z"/>
		<path class="st2" d="M165.2,69.5c-0.4,0-1.2,0-2.1,0c0,0,0,0,0,0c-0.2,0-0.4,0-0.4-0.1c0-0.1,0.1-0.2,0.2-0.2c0,0,0,0,0.1-0.1
			c0,0,0-0.1,0-0.1l-0.9-2.3l-0.1,0l-2.4,0l-0.1,0l-0.6,1.6c-0.1,0.2-0.2,0.5-0.2,0.6c0,0.1,0,0.3,0.4,0.3h0.2c0.1,0,0.2,0,0.2,0.2
			c0,0.2-0.2,0.2-0.2,0.2c-0.2,0-0.4,0-0.6,0c-0.2,0-0.4,0-0.6,0c0,0-0.1,0-0.3,0c-0.3,0-0.7,0-1,0c-0.1,0-0.3,0-0.3-0.2
			c0-0.1,0-0.2,0.2-0.2h0.3c0.5-0.1,0.7-0.4,0.9-1l2.7-6.8l0,0v0c0.1-0.3,0.2-0.4,0.3-0.4c0.1,0,0.2,0.1,0.3,0.4
			c0.2,0.4,1,2.4,1.7,4.2c0.4,1,0.8,1.9,1,2.5c0.4,1,0.8,1.1,0.9,1.2c0.2,0,0.3,0,0.5,0c0.2,0,0.2,0.1,0.2,0.2
			C165.7,69.5,165.6,69.5,165.2,69.5z M161.9,66l-1-2.7c0,0,0,0,0,0l-1,2.7l1,0H161.9z"/>
		<path class="st2" d="M162.1,66.6c0.1,0,0.1,0,0.1,0.1L163,69c0.1,0.1,0,0.2-0.1,0.3c-0.1,0-0.2,0-0.2,0.1c0,0.1,0.1,0.1,0.3,0.1
			c0.9,0,1.7,0,2.1,0c0.4,0,0.5,0,0.5-0.1c0-0.1-0.1-0.1-0.1-0.1c-0.1,0-0.3,0-0.5,0c-0.2-0.1-0.5-0.2-1-1.2
			c-0.7-1.7-2.4-6.1-2.7-6.7c-0.1-0.2-0.2-0.3-0.3-0.3c-0.1,0-0.2,0.1-0.3,0.4v1.8c0,0,0,0,0,0s0,0.1,0.1,0.1l1,2.7
			c0,0,0,0.1-0.1,0.1h-1v0.5H162.1z M160.9,61.4C160.9,61.4,160.8,61.4,160.9,61.4l-2.8,6.9c-0.2,0.5-0.4,0.9-0.9,1
			c-0.1,0-0.2,0-0.3,0c-0.1,0-0.1,0-0.1,0.1c0,0.1,0.1,0.1,0.2,0.1c0.6,0,1.2,0,1.3,0c0.3,0,0.8,0,1.1,0c0.1,0,0.2,0,0.2-0.1
			c0-0.1,0-0.1-0.2-0.1h-0.2c-0.3,0-0.4-0.1-0.4-0.3c0-0.1,0.1-0.4,0.2-0.6l0.6-1.6c0-0.1,0.1-0.1,0.1-0.1h1.2v-0.5h-1
			c-0.1,0-0.1-0.1-0.1-0.1l1-2.7c0-0.1,0-0.1,0.1-0.1V61.4z"/>
		<path class="st2" d="M173.5,69.6c-0.1,0-0.2-0.1-0.3-0.2l-0.1-0.1c-0.4-0.4-1-1-1.7-1.7c-0.5-0.5-1-1.1-1.5-1.5
			c-1.2-1.2-2.4-2.6-2.6-2.8l0.2,4.5c0,0.9,0.2,1.1,0.4,1.2c0.2,0.1,0.4,0.1,0.5,0.1c0.1,0,0.2,0,0.2,0.2s-0.2,0.2-0.3,0.2
			c-0.5,0-0.8,0-1,0c-0.1,0-0.2,0-0.3,0c0,0-0.1,0-0.2,0c-0.2,0-0.6,0-1,0c-0.2,0-0.3,0-0.3-0.2c0-0.1,0-0.2,0.2-0.2
			c0.2,0,0.3,0,0.5-0.1c0.2-0.1,0.3-0.3,0.3-1.3l0.1-6.4c0-0.1,0-0.4,0.2-0.4c0.1,0,0.3,0.1,0.4,0.3c0.1,0.1,0.1,0.2,0.3,0.3
			c0.6,0.6,1.8,2,3.1,3.2c0.5,0.5,1.3,1.3,1.9,1.9c0.3,0.3,0.5,0.5,0.5,0.6l-0.1-4.8c0-0.7-0.1-0.8-0.4-0.9c-0.1,0-0.4,0-0.5,0
			c-0.2,0-0.2-0.1-0.2-0.2c0-0.2,0.2-0.2,0.3-0.2c0.4,0,0.7,0,0.9,0c0.2,0,0.3,0,0.4,0c0,0,0.1,0,0.2,0c0.2,0,0.5,0,0.8,0
			c0.1,0,0.3,0,0.3,0.2c0,0.1-0.1,0.2-0.3,0.2c0,0,0,0,0,0c-0.1,0-0.2,0-0.3,0c-0.3,0.1-0.3,0.3-0.4,0.9l-0.1,6.9
			C173.7,69.4,173.7,69.6,173.5,69.6z"/>
		<path class="st2" d="M167.3,63.4L167.3,63.4c0.2,0.2,1.5,1.6,2.6,2.8c1.1,1.1,2.5,2.5,3.2,3.2c0.1,0.1,0.3,0.2,0.4,0.2
			c0.1,0,0.2-0.1,0.2-0.3l0.1-6.9c0-0.6,0.1-0.9,0.4-0.9c0.1,0,0.2,0,0.3,0c0.1,0,0.2-0.1,0.2-0.1c0-0.1-0.1-0.1-0.3-0.1
			c-0.5,0-0.9,0-1.1,0c-0.2,0-0.8,0-1.3,0c-0.2,0-0.3,0-0.3,0.1c0,0.1,0,0.1,0.2,0.1c0.2,0,0.4,0,0.6,0.1c0.3,0.1,0.4,0.3,0.4,1
			l0.1,4.9H173c-0.2-0.2-1.7-1.7-2.4-2.5c-1.6-1.6-3.2-3.4-3.4-3.5c-0.2-0.2-0.3-0.3-0.4-0.3c-0.1,0-0.1,0.2-0.1,0.4l-0.1,6.4
			c0,1-0.1,1.3-0.3,1.3c-0.2,0.1-0.3,0.1-0.5,0.1c-0.1,0-0.2,0-0.2,0.1c0,0.1,0.1,0.1,0.3,0.1c0.5,0,1.1,0,1.2,0c0.2,0,0.6,0,1.4,0
			c0.2,0,0.2,0,0.2-0.1c0-0.1-0.1-0.1-0.2-0.1c-0.2,0-0.4,0-0.5-0.1c-0.2-0.1-0.4-0.4-0.4-1.2L167.3,63.4z"/>
		<path class="st2" d="M183.1,69.5c-0.4,0-1.2,0-2.1,0c0,0,0,0,0,0c-0.2,0-0.4,0-0.4-0.1c0-0.1,0.1-0.2,0.2-0.2c0,0,0,0,0.1-0.1
			c0,0,0-0.1,0-0.1l-0.9-2.3l-0.1,0h-2.4l-0.1,0l-0.6,1.6c-0.1,0.2-0.2,0.5-0.2,0.6c0,0.1,0,0.3,0.4,0.3h0.2c0.1,0,0.2,0,0.2,0.2
			c0,0.1,0,0.2-0.2,0.2c-0.2,0-0.4,0-0.6,0c-0.2,0-0.4,0-0.6,0c0,0-0.1,0-0.2,0c-0.3,0-0.7,0-1.1,0c-0.1,0-0.3,0-0.3-0.2
			c0-0.1,0.1-0.2,0.2-0.2h0.3c0.4-0.1,0.6-0.4,0.9-1l2.7-6.8v0c0.1-0.3,0.2-0.4,0.3-0.4c0.1,0,0.2,0.1,0.3,0.4
			c0.1,0.3,0.5,1.2,0.9,2.3c0.6,1.5,1.4,3.4,1.8,4.4c0.4,0.9,0.7,1.1,0.9,1.2c0.1,0,0.3,0,0.4,0c0,0,0,0,0,0c0.1,0,0.2,0,0.2,0.2
			C183.7,69.5,183.5,69.5,183.1,69.5z M179.8,66l-1-2.7l0,0l-1,2.7l1,0H179.8z"/>
		<path class="st2" d="M180,66.6c0.1,0,0.1,0,0.1,0.1L181,69c0.1,0.1,0,0.2-0.1,0.3c-0.1,0-0.1,0-0.1,0.1c0,0.1,0.1,0.1,0.3,0.1
			c0.9,0,1.7,0,2.1,0c0.4,0,0.5,0,0.5-0.1c0-0.1-0.1-0.1-0.2-0.1c-0.1,0-0.3,0-0.4,0c-0.2-0.1-0.5-0.2-1-1.2
			c-0.7-1.7-2.4-6.1-2.7-6.7c-0.1-0.2-0.2-0.3-0.3-0.3c-0.1,0-0.2,0.1-0.3,0.4v1.8h0c0,0,0.1,0.1,0.1,0.1l1,2.7c0,0,0,0.1-0.1,0.1
			h-1v0.5H180z M178.8,61.4C178.8,61.4,178.8,61.4,178.8,61.4l-2.8,6.9c-0.2,0.5-0.4,0.9-0.9,1c-0.1,0-0.3,0-0.3,0
			c-0.1,0-0.1,0-0.1,0.1c0,0.1,0.1,0.1,0.2,0.1c0.5,0,1.2,0,1.3,0c0.3,0,0.8,0,1.2,0c0.1,0,0.2,0,0.2-0.1c0-0.1-0.1-0.1-0.2-0.1
			h-0.2c-0.3,0-0.4-0.1-0.4-0.3c0-0.1,0.1-0.4,0.2-0.6l0.6-1.6c0-0.1,0.1-0.1,0.1-0.1h1.2v-0.5h-1c0,0-0.1-0.1,0-0.1l1-2.7
			c0-0.1,0-0.1,0.1-0.1V61.4z"/>
	</g>
</g>
</svg>
